<svg xmlns="http://www.w3.org/2000/svg" viewBox="0 0 36 55.99"><defs><style>.cls-1{fill:#463e32;}.cls-2{fill:#ab792d;}.cls-3{fill:#8f691d;}.cls-4{fill:#a47227;}.cls-5{fill:#7f5f22;}.cls-6{fill:#a76e1f;}.cls-7{fill:#514534;}.cls-8{fill:#3d352b;}.cls-9{fill:#4f463b;}.cls-10{fill:#705217;}.cls-11{fill:#2a251d;}.cls-12{fill:#855d20;}.cls-13{fill:#1e1a15;}.cls-14{fill:#885a19;}.cls-15{fill:#27231c;}.cls-16{fill:#9e762e;}.cls-17{fill:#b27524;}.cls-18{fill:#483313;}.cls-19{fill:#2c2009;}.cls-20{fill:#3b2c10;}.cls-21{fill:#513b19;}.cls-22{fill:#412d10;}.cls-23{fill:#6d4817;}.cls-24{fill:#67491b;}.cls-25{fill:#4b370f;}.cls-26{fill:#604317;}.cls-27{fill:#634112;}.cls-28{fill:#442d0c;}.cls-29{fill:#302b24;}.cls-30{fill:#1c1508;}.cls-31{fill:#5a431a;}</style></defs><title>ches-open</title><g id="Layer_2" data-name="Layer 2"><g id="Layer_1-2" data-name="Layer 1"><g id="ches-open"><rect class="cls-1" y="35.99" width="4" height="4"/><rect class="cls-2" x="4" y="35.99" width="4" height="4"/><rect class="cls-3" x="8" y="35.99" width="4" height="4"/><rect class="cls-4" x="12" y="35.99" width="4" height="4"/><rect class="cls-5" x="16" y="35.99" width="4" height="4"/><rect class="cls-6" x="20" y="35.99" width="4" height="4"/><rect class="cls-7" y="51.99" width="4" height="4"/><rect class="cls-1" y="47.99" width="4" height="4"/><rect class="cls-8" y="43.99" width="4" height="4"/><rect class="cls-6" x="28" y="47.99" width="4" height="4"/><rect class="cls-9" x="28" y="51.99" width="4" height="4"/><rect class="cls-6" x="28" y="43.99" width="4" height="4"/><rect class="cls-1" x="32" y="51.99" width="4" height="4"/><rect class="cls-1" x="32" y="47.99" width="4" height="4"/><rect class="cls-2" x="4" y="43.99" width="4" height="4"/><rect class="cls-2" x="8" y="43.99" width="4" height="4"/><rect class="cls-6" x="12" y="43.99" width="4" height="4"/><rect class="cls-3" x="16" y="43.99" width="4" height="4"/><rect class="cls-6" x="20" y="43.99" width="4" height="4"/><rect class="cls-4" x="24" y="43.99" width="4" height="4"/><rect class="cls-8" y="39.99" width="4" height="4"/><rect class="cls-10" x="28" y="35.99" width="4" height="4"/><rect class="cls-11" x="32" y="35.99" width="4" height="4"/><rect class="cls-12" x="24" y="35.99" width="4" height="4"/><rect class="cls-13" x="32" y="43.99" width="4" height="4"/><rect class="cls-14" x="28" y="39.99" width="4" height="4"/><rect class="cls-15" x="32" y="39.99" width="4" height="4"/><rect class="cls-16" x="4" y="39.99" width="4" height="4"/><rect class="cls-6" x="8" y="39.99" width="4" height="4"/><rect class="cls-2" x="12" y="39.99" width="4" height="4"/><rect class="cls-3" x="16" y="39.99" width="4" height="4"/><rect class="cls-16" x="20" y="39.99" width="4" height="4"/><rect class="cls-17" x="24" y="39.99" width="4" height="4"/><rect class="cls-6" x="4" y="47.99" width="4" height="4"/><rect class="cls-5" x="8" y="47.99" width="4" height="4"/><rect class="cls-2" x="12" y="47.99" width="4" height="4"/><rect class="cls-5" x="16" y="47.99" width="4" height="4"/><rect class="cls-3" x="20" y="47.99" width="4" height="4"/><rect class="cls-2" x="24" y="47.99" width="4" height="4"/><rect class="cls-7" x="4" y="51.99" width="4" height="4"/><rect class="cls-1" x="8" y="51.99" width="4" height="4"/><rect class="cls-1" x="12" y="51.99" width="4" height="4"/><rect class="cls-8" x="16" y="51.99" width="4" height="4"/><rect class="cls-8" x="20" y="51.99" width="4" height="4"/><rect class="cls-1" x="24" y="51.99" width="4" height="4"/><rect class="cls-1" y="16" width="4" height="4"/><rect class="cls-1" y="12" width="4" height="4"/><rect class="cls-1" y="8" width="4" height="4"/><rect class="cls-8" y="4" width="4" height="4"/><rect class="cls-18" x="4" y="4" width="4" height="4"/><rect class="cls-19" x="4" y="8" width="4" height="4"/><rect class="cls-20" x="8" y="8" width="4" height="4"/><rect class="cls-21" x="12" y="8" width="4" height="4"/><rect class="cls-22" x="4" y="12" width="4" height="4"/><rect class="cls-20" x="8" y="12" width="4" height="4"/><rect class="cls-23" x="12" y="12" width="4" height="4"/><rect class="cls-20" x="16" y="12" width="4" height="4"/><rect class="cls-24" x="4" y="16" width="4" height="4"/><rect class="cls-25" x="8" y="16" width="4" height="4"/><rect class="cls-26" x="12" y="16" width="4" height="4"/><rect class="cls-25" x="16" y="16" width="4" height="4"/><rect class="cls-27" x="20" y="16" width="4" height="4"/><rect class="cls-7" y="32" width="4" height="4"/><rect class="cls-1" y="28" width="4" height="4"/><rect class="cls-8" y="24" width="4" height="4"/><rect class="cls-27" x="28" y="28" width="4" height="4"/><rect class="cls-15" x="28" y="32" width="4" height="4"/><rect class="cls-27" x="28" y="24" width="4" height="4"/><rect class="cls-13" x="32" y="32" width="4" height="4"/><rect class="cls-13" x="32" y="28" width="4" height="4"/><rect class="cls-24" x="4" y="24" width="4" height="4"/><rect class="cls-24" x="8" y="24" width="4" height="4"/><rect class="cls-27" x="12" y="24" width="4" height="4"/><rect class="cls-25" x="16" y="24" width="4" height="4"/><rect class="cls-27" x="20" y="24" width="4" height="4"/><rect class="cls-26" x="24" y="24" width="4" height="4"/><rect class="cls-8" y="20" width="4" height="4"/><rect class="cls-18" x="28" y="8" width="4" height="4"/><rect class="cls-19" x="28" y="12" width="4" height="4"/><rect class="cls-19" x="28" y="16" width="4" height="4"/><rect class="cls-28" x="28" y="4" width="4" height="4"/><rect class="cls-19" x="8" y="4" width="4" height="4"/><rect class="cls-22" x="12" y="4" width="4" height="4"/><rect class="cls-22" x="16" y="4" width="4" height="4"/><rect class="cls-19" x="20" y="4" width="4" height="4"/><rect class="cls-19" x="24" y="4" width="4" height="4"/><rect class="cls-15" width="4" height="4"/><rect class="cls-13" x="28" width="4" height="4"/><rect class="cls-11" x="32" y="16" width="4" height="4"/><rect class="cls-11" x="32" y="12" width="4" height="4"/><rect class="cls-15" x="32" y="8" width="4" height="4"/><rect class="cls-15" x="32" y="4" width="4" height="4"/><rect class="cls-15" x="32" width="4" height="4"/><rect class="cls-15" x="4" width="4" height="4"/><rect class="cls-29" x="8" width="4" height="4"/><rect class="cls-29" x="12" width="4" height="4"/><rect class="cls-15" x="16" width="4" height="4"/><rect class="cls-15" x="20" width="4" height="4"/><rect class="cls-15" x="24" width="4" height="4"/><rect class="cls-22" x="16" y="8" width="4" height="4"/><rect class="cls-30" x="20" y="8" width="4" height="4"/><rect class="cls-18" x="24" y="8" width="4" height="4"/><rect class="cls-20" x="20" y="12" width="4" height="4"/><rect class="cls-28" x="24" y="12" width="4" height="4"/><rect class="cls-22" x="24" y="16" width="4" height="4"/><rect class="cls-13" x="32" y="24" width="4" height="4"/><rect class="cls-28" x="28" y="20" width="4" height="4"/><rect class="cls-15" x="32" y="20" width="4" height="4"/><rect class="cls-31" x="4" y="20" width="4" height="4"/><rect class="cls-27" x="8" y="20" width="4" height="4"/><rect class="cls-18" x="12" y="20" width="4" height="4"/><rect class="cls-25" x="16" y="20" width="4" height="4"/><rect class="cls-22" x="20" y="20" width="4" height="4"/><rect class="cls-23" x="24" y="20" width="4" height="4"/><rect class="cls-27" x="4" y="28" width="4" height="4"/><rect class="cls-20" x="8" y="28" width="4" height="4"/><rect class="cls-24" x="12" y="28" width="4" height="4"/><rect class="cls-20" x="16" y="28" width="4" height="4"/><rect class="cls-22" x="20" y="28" width="4" height="4"/><rect class="cls-24" x="24" y="28" width="4" height="4"/><rect class="cls-7" x="4" y="32" width="4" height="4"/><rect class="cls-1" x="8" y="32" width="4" height="4"/><rect class="cls-13" x="12" y="32" width="4" height="4"/><rect class="cls-8" x="16" y="32" width="4" height="4"/><rect class="cls-11" x="20" y="32" width="4" height="4"/><rect class="cls-11" x="24" y="32" width="4" height="4"/></g></g></g></svg>