<svg xmlns="http://www.w3.org/2000/svg" viewBox="0 0 36 36"><defs><style>.cls-1{fill:#463e32;}.cls-2{fill:#3d352b;}.cls-3{fill:#ab792d;}.cls-4{fill:#a76e1f;}.cls-5{fill:#7f5f22;}.cls-6{fill:#956c2e;}.cls-7{fill:#d8d8d8;}.cls-8{fill:#8f691d;}.cls-9{fill:#a47227;}.cls-10{fill:#e6e6e6;}.cls-11{fill:#514534;}.cls-12{fill:#4f463b;}.cls-13{fill:#8c6325;}.cls-14{fill:#27231c;}.cls-15{fill:#705217;}.cls-16{fill:#885a19;}.cls-17{fill:#855d20;}.cls-18{fill:#322b20;}.cls-19{fill:#2a251d;}.cls-20{fill:#302b24;}.cls-21{fill:#c7c7c7;}.cls-22{fill:#60481a;}.cls-23{fill:#1e1a15;}.cls-24{fill:#9e762e;}.cls-25{fill:#b27524;}</style></defs><title>chest-closed</title><g id="Layer_2" data-name="Layer 2"><g id="Layer_1-2" data-name="Layer 1"><g id="chest-closed"><rect class="cls-1" y="16" width="4" height="4"/><rect class="cls-1" y="12" width="4" height="4"/><rect class="cls-1" y="8" width="4" height="4"/><rect class="cls-2" y="4" width="4" height="4"/><rect class="cls-3" x="4" y="4" width="4" height="4"/><rect class="cls-4" x="4" y="8" width="4" height="4"/><rect class="cls-5" x="8" y="8" width="4" height="4"/><rect class="cls-6" x="12" y="8" width="4" height="4"/><rect class="cls-1" x="4" y="12" width="4" height="4"/><rect class="cls-1" x="8" y="12" width="4" height="4"/><rect class="cls-1" x="12" y="12" width="4" height="4"/><rect class="cls-7" x="16" y="12" width="4" height="4"/><rect class="cls-3" x="4" y="16" width="4" height="4"/><rect class="cls-8" x="8" y="16" width="4" height="4"/><rect class="cls-9" x="12" y="16" width="4" height="4"/><rect class="cls-10" x="16" y="16" width="4" height="4"/><rect class="cls-4" x="20" y="16" width="4" height="4"/><rect class="cls-11" y="32" width="4" height="4"/><rect class="cls-1" y="28" width="4" height="4"/><rect class="cls-2" y="24" width="4" height="4"/><rect class="cls-4" x="28" y="28" width="4" height="4"/><rect class="cls-12" x="28" y="32" width="4" height="4"/><rect class="cls-4" x="28" y="24" width="4" height="4"/><rect class="cls-1" x="32" y="32" width="4" height="4"/><rect class="cls-1" x="32" y="28" width="4" height="4"/><rect class="cls-3" x="4" y="24" width="4" height="4"/><rect class="cls-3" x="8" y="24" width="4" height="4"/><rect class="cls-4" x="12" y="24" width="4" height="4"/><rect class="cls-8" x="16" y="24" width="4" height="4"/><rect class="cls-4" x="20" y="24" width="4" height="4"/><rect class="cls-9" x="24" y="24" width="4" height="4"/><rect class="cls-2" y="20" width="4" height="4"/><rect class="cls-13" x="28" y="8" width="4" height="4"/><rect class="cls-14" x="28" y="12" width="4" height="4"/><rect class="cls-15" x="28" y="16" width="4" height="4"/><rect class="cls-16" x="28" y="4" width="4" height="4"/><rect class="cls-15" x="8" y="4" width="4" height="4"/><rect class="cls-17" x="12" y="4" width="4" height="4"/><rect class="cls-17" x="16" y="4" width="4" height="4"/><rect class="cls-15" x="20" y="4" width="4" height="4"/><rect class="cls-15" x="24" y="4" width="4" height="4"/><rect class="cls-14" width="4" height="4"/><rect class="cls-18" x="28" width="4" height="4"/><rect class="cls-19" x="32" y="16" width="4" height="4"/><rect class="cls-19" x="32" y="12" width="4" height="4"/><rect class="cls-14" x="32" y="8" width="4" height="4"/><rect class="cls-14" x="32" y="4" width="4" height="4"/><rect class="cls-14" x="32" width="4" height="4"/><rect class="cls-14" x="4" width="4" height="4"/><rect class="cls-20" x="8" width="4" height="4"/><rect class="cls-20" x="12" width="4" height="4"/><rect class="cls-14" x="16" width="4" height="4"/><rect class="cls-14" x="20" width="4" height="4"/><rect class="cls-14" x="24" width="4" height="4"/><rect class="cls-21" x="16" y="8" width="4" height="4"/><rect class="cls-22" x="20" y="8" width="4" height="4"/><rect class="cls-13" x="24" y="8" width="4" height="4"/><rect class="cls-14" x="20" y="12" width="4" height="4"/><rect class="cls-14" x="24" y="12" width="4" height="4"/><rect class="cls-17" x="24" y="16" width="4" height="4"/><rect class="cls-23" x="32" y="24" width="4" height="4"/><rect class="cls-16" x="28" y="20" width="4" height="4"/><rect class="cls-14" x="32" y="20" width="4" height="4"/><rect class="cls-24" x="4" y="20" width="4" height="4"/><rect class="cls-4" x="8" y="20" width="4" height="4"/><rect class="cls-3" x="12" y="20" width="4" height="4"/><rect class="cls-8" x="16" y="20" width="4" height="4"/><rect class="cls-24" x="20" y="20" width="4" height="4"/><rect class="cls-25" x="24" y="20" width="4" height="4"/><rect class="cls-4" x="4" y="28" width="4" height="4"/><rect class="cls-5" x="8" y="28" width="4" height="4"/><rect class="cls-3" x="12" y="28" width="4" height="4"/><rect class="cls-5" x="16" y="28" width="4" height="4"/><rect class="cls-8" x="20" y="28" width="4" height="4"/><rect class="cls-3" x="24" y="28" width="4" height="4"/><rect class="cls-11" x="4" y="32" width="4" height="4"/><rect class="cls-1" x="8" y="32" width="4" height="4"/><rect class="cls-1" x="12" y="32" width="4" height="4"/><rect class="cls-2" x="16" y="32" width="4" height="4"/><rect class="cls-2" x="20" y="32" width="4" height="4"/><rect class="cls-1" x="24" y="32" width="4" height="4"/></g></g></g></svg>