<svg xmlns="http://www.w3.org/2000/svg" viewBox="0 0 144 44"><defs><style>.cls-1{fill:#f7f7f7;}.cls-2{fill:#f0f0f0;}.cls-3{fill:#e9e9e9;}.cls-4{fill:#efefef;}.cls-5{fill:#ebebeb;}.cls-6{fill:#d6d6d6;}.cls-7{fill:#eaeaea;}.cls-8{fill:#f8f8f8;}.cls-9{fill:#f9f9f9;}.cls-10{fill:#dadada;}.cls-11{fill:#d2d2d2;}.cls-12{fill:#d1d1d1;}.cls-13{fill:#ccc;}.cls-14{fill:#d9d9d9;}.cls-15{fill:#b9b9b9;}.cls-16{fill:#fff;}.cls-17{fill:#b8b8b8;}.cls-18{fill:#dbdbdb;}.cls-19{fill:#cbcbcb;}</style></defs><title>cloud-2</title><g id="Layer_2" data-name="Layer 2"><g id="Layer_1-2" data-name="Layer 1"><g id="cloud-2"><rect class="cls-1" x="60" y="16" width="4" height="4"/><rect class="cls-2" x="60" y="20" width="4" height="4"/><rect class="cls-3" x="60" y="24" width="4" height="4"/><rect class="cls-1" x="60" y="28" width="4" height="4"/><rect class="cls-1" x="64" y="16" width="4" height="4"/><rect class="cls-4" x="64" y="20" width="4" height="4"/><rect class="cls-5" x="64" y="24" width="4" height="4"/><rect class="cls-6" x="64" y="28" width="4" height="4"/><rect class="cls-7" x="68" y="12" width="4" height="4"/><rect class="cls-1" x="68" y="16" width="4" height="4"/><rect class="cls-8" x="68" y="20" width="4" height="4"/><rect class="cls-5" x="68" y="24" width="4" height="4"/><rect class="cls-8" x="68" y="28" width="4" height="4"/><rect class="cls-4" x="56" y="24" width="4" height="4"/><rect class="cls-7" x="56" y="28" width="4" height="4"/><rect class="cls-9" x="52" y="24" width="4" height="4"/><rect class="cls-7" x="52" y="28" width="4" height="4"/><rect class="cls-2" x="48" y="24" width="4" height="4"/><rect class="cls-7" x="48" y="28" width="4" height="4"/><rect class="cls-4" x="44" y="24" width="4" height="4"/><rect class="cls-7" x="44" y="28" width="4" height="4"/><rect class="cls-4" x="40" y="24" width="4" height="4"/><rect class="cls-2" x="40" y="28" width="4" height="4"/><rect class="cls-4" x="36" y="24" width="4" height="4"/><rect class="cls-2" x="36" y="28" width="4" height="4"/><rect class="cls-1" x="132" y="16" width="4" height="4"/><rect class="cls-2" x="132" y="20" width="4" height="4"/><rect class="cls-3" x="132" y="24" width="4" height="4"/><rect class="cls-4" x="136" y="20" width="4" height="4"/><rect class="cls-5" x="136" y="24" width="4" height="4"/><rect class="cls-5" x="140" y="24" width="4" height="4"/><rect class="cls-8" x="140" y="28" width="4" height="4"/><rect class="cls-8" x="128" y="16" width="4" height="4"/><rect class="cls-9" x="128" y="20" width="4" height="4"/><rect class="cls-4" x="128" y="24" width="4" height="4"/><rect class="cls-1" x="124" y="16" width="4" height="4"/><rect class="cls-4" x="124" y="20" width="4" height="4"/><rect class="cls-1" x="120" y="16" width="4" height="4"/><rect class="cls-9" x="120" y="20" width="4" height="4"/><rect class="cls-1" x="116" y="16" width="4" height="4"/><rect class="cls-9" x="116" y="20" width="4" height="4"/><rect class="cls-4" x="112" y="12" width="4" height="4"/><rect class="cls-8" x="112" y="16" width="4" height="4"/><rect class="cls-4" x="112" y="20" width="4" height="4"/><rect class="cls-9" x="108" y="12" width="4" height="4"/><rect class="cls-7" x="108" y="16" width="4" height="4"/><rect class="cls-1" x="108" y="20" width="4" height="4"/><rect class="cls-4" x="108" y="24" width="4" height="4"/><rect class="cls-8" x="92" width="4" height="4"/><rect class="cls-8" x="88" width="4" height="4"/><rect class="cls-4" x="80" width="4" height="4"/><rect class="cls-7" x="84" width="4" height="4"/><rect class="cls-1" x="80" y="4" width="4" height="4"/><rect class="cls-1" x="84" y="4" width="4" height="4"/><rect class="cls-1" x="88" y="4" width="4" height="4"/><rect class="cls-4" x="92" y="4" width="4" height="4"/><rect class="cls-4" x="96" y="4" width="4" height="4"/><rect class="cls-2" x="24" y="20" width="4" height="4"/><rect class="cls-4" x="28" y="20" width="4" height="4"/><rect class="cls-5" x="28" y="24" width="4" height="4"/><rect class="cls-8" x="32" y="20" width="4" height="4"/><rect class="cls-5" x="32" y="24" width="4" height="4"/><rect class="cls-8" x="32" y="28" width="4" height="4"/><rect class="cls-8" x="20" y="16" width="4" height="4"/><rect class="cls-9" x="20" y="20" width="4" height="4"/><rect class="cls-1" x="16" y="16" width="4" height="4"/><rect class="cls-4" x="16" y="20" width="4" height="4"/><rect class="cls-9" x="12" y="20" width="4" height="4"/><rect class="cls-2" x="12" y="24" width="4" height="4"/><rect class="cls-9" x="8" y="20" width="4" height="4"/><rect class="cls-4" x="8" y="24" width="4" height="4"/><rect class="cls-7" x="8" y="28" width="4" height="4"/><rect class="cls-4" x="4" y="24" width="4" height="4"/><rect class="cls-2" x="4" y="28" width="4" height="4"/><rect class="cls-2" y="28" width="4" height="4"/><rect class="cls-1" x="76" y="8" width="4" height="4"/><rect class="cls-1" x="80" y="8" width="4" height="4"/><rect class="cls-1" x="84" y="8" width="4" height="4"/><rect class="cls-1" x="88" y="8" width="4" height="4"/><rect class="cls-4" x="92" y="8" width="4" height="4"/><rect class="cls-4" x="96" y="8" width="4" height="4"/><rect class="cls-7" x="96" y="12" width="4" height="4"/><rect class="cls-1" x="96" y="16" width="4" height="4"/><rect class="cls-2" x="100" y="8" width="4" height="4"/><rect class="cls-7" x="100" y="12" width="4" height="4"/><rect class="cls-1" x="100" y="16" width="4" height="4"/><rect class="cls-4" x="100" y="20" width="4" height="4"/><rect class="cls-5" x="100" y="24" width="4" height="4"/><rect class="cls-4" x="104" y="8" width="4" height="4"/><rect class="cls-7" x="104" y="12" width="4" height="4"/><rect class="cls-1" x="104" y="16" width="4" height="4"/><rect class="cls-8" x="104" y="20" width="4" height="4"/><rect class="cls-5" x="104" y="24" width="4" height="4"/><rect class="cls-7" x="92" y="12" width="4" height="4"/><rect class="cls-8" x="92" y="16" width="4" height="4"/><rect class="cls-2" x="88" y="12" width="4" height="4"/><rect class="cls-1" x="88" y="16" width="4" height="4"/><rect class="cls-2" x="84" y="12" width="4" height="4"/><rect class="cls-1" x="84" y="16" width="4" height="4"/><rect class="cls-7" x="80" y="12" width="4" height="4"/><rect class="cls-1" x="80" y="16" width="4" height="4"/><rect class="cls-4" x="76" y="12" width="4" height="4"/><rect class="cls-8" x="76" y="16" width="4" height="4"/><rect class="cls-4" x="76" y="20" width="4" height="4"/><rect class="cls-9" x="72" y="12" width="4" height="4"/><rect class="cls-7" x="72" y="16" width="4" height="4"/><rect class="cls-1" x="72" y="20" width="4" height="4"/><rect class="cls-4" x="72" y="24" width="4" height="4"/><rect class="cls-10" x="56" y="36" width="4" height="4"/><rect class="cls-11" x="40" y="36" width="4" height="4"/><rect class="cls-10" x="52" y="36" width="4" height="4"/><rect class="cls-12" x="44" y="36" width="4" height="4"/><rect class="cls-13" x="48" y="36" width="4" height="4"/><rect class="cls-14" x="60" y="36" width="4" height="4"/><rect class="cls-12" x="60" y="32" width="4" height="4"/><rect class="cls-15" x="64" y="36" width="4" height="4"/><rect class="cls-12" x="60" y="40" width="4" height="4"/><rect class="cls-13" x="64" y="40" width="4" height="4"/><rect class="cls-13" x="64" y="32" width="4" height="4"/><rect class="cls-15" x="68" y="36" width="4" height="4"/><rect class="cls-12" x="68" y="40" width="4" height="4"/><rect class="cls-10" x="68" y="32" width="4" height="4"/><rect class="cls-14" x="56" y="32" width="4" height="4"/><rect class="cls-14" x="52" y="32" width="4" height="4"/><rect class="cls-14" x="48" y="32" width="4" height="4"/><rect class="cls-14" x="44" y="32" width="4" height="4"/><rect class="cls-10" x="40" y="32" width="4" height="4"/><rect class="cls-10" x="36" y="32" width="4" height="4"/><rect class="cls-11" x="112" y="36" width="4" height="4"/><rect class="cls-16" x="108" y="36" width="4" height="4"/><rect class="cls-14" x="132" y="28" width="4" height="4"/><rect class="cls-12" x="132" y="32" width="4" height="4"/><rect class="cls-17" x="136" y="28" width="4" height="4"/><rect class="cls-13" x="136" y="32" width="4" height="4"/><rect class="cls-10" x="140" y="32" width="4" height="4"/><rect class="cls-13" x="128" y="28" width="4" height="4"/><rect class="cls-14" x="128" y="32" width="4" height="4"/><rect class="cls-18" x="124" y="24" width="4" height="4"/><rect class="cls-13" x="124" y="28" width="4" height="4"/><rect class="cls-14" x="124" y="32" width="4" height="4"/><rect class="cls-11" x="120" y="24" width="4" height="4"/><rect class="cls-13" x="120" y="28" width="4" height="4"/><rect class="cls-14" x="120" y="32" width="4" height="4"/><rect class="cls-12" x="116" y="24" width="4" height="4"/><rect class="cls-13" x="116" y="28" width="4" height="4"/><rect class="cls-14" x="116" y="32" width="4" height="4"/><rect class="cls-12" x="112" y="24" width="4" height="4"/><rect class="cls-11" x="112" y="28" width="4" height="4"/><rect class="cls-10" x="112" y="32" width="4" height="4"/><rect class="cls-11" x="108" y="28" width="4" height="4"/><rect class="cls-10" x="108" y="32" width="4" height="4"/><rect class="cls-10" x="20" y="36" width="4" height="4"/><rect class="cls-11" x="4" y="36" width="4" height="4"/><rect class="cls-10" x="16" y="36" width="4" height="4"/><rect class="cls-12" x="8" y="36" width="4" height="4"/><rect class="cls-13" x="12" y="36" width="4" height="4"/><rect class="cls-19" x="24" y="24" width="4" height="4"/><rect class="cls-14" x="24" y="28" width="4" height="4"/><rect class="cls-12" x="24" y="32" width="4" height="4"/><rect class="cls-17" x="28" y="28" width="4" height="4"/><rect class="cls-13" x="28" y="32" width="4" height="4"/><rect class="cls-10" x="32" y="32" width="4" height="4"/><rect class="cls-12" x="20" y="24" width="4" height="4"/><rect class="cls-13" x="20" y="28" width="4" height="4"/><rect class="cls-14" x="20" y="32" width="4" height="4"/><rect class="cls-18" x="16" y="24" width="4" height="4"/><rect class="cls-13" x="16" y="28" width="4" height="4"/><rect class="cls-14" x="16" y="32" width="4" height="4"/><rect class="cls-13" x="12" y="28" width="4" height="4"/><rect class="cls-14" x="12" y="32" width="4" height="4"/><rect class="cls-14" x="8" y="32" width="4" height="4"/><rect class="cls-10" x="4" y="32" width="4" height="4"/><rect class="cls-10" y="32" width="4" height="4"/><rect class="cls-10" x="92" y="36" width="4" height="4"/><rect class="cls-11" x="76" y="36" width="4" height="4"/><rect class="cls-10" x="88" y="36" width="4" height="4"/><rect class="cls-16" x="72" y="36" width="4" height="4"/><rect class="cls-12" x="80" y="36" width="4" height="4"/><rect class="cls-13" x="84" y="36" width="4" height="4"/><rect class="cls-14" x="96" y="36" width="4" height="4"/><rect class="cls-11" x="96" y="20" width="4" height="4"/><rect class="cls-19" x="96" y="24" width="4" height="4"/><rect class="cls-14" x="96" y="28" width="4" height="4"/><rect class="cls-12" x="96" y="32" width="4" height="4"/><rect class="cls-15" x="100" y="36" width="4" height="4"/><rect class="cls-19" x="72" y="40" width="4" height="4"/><rect class="cls-17" x="100" y="28" width="4" height="4"/><rect class="cls-13" x="100" y="32" width="4" height="4"/><rect class="cls-15" x="104" y="36" width="4" height="4"/><rect class="cls-10" x="104" y="28" width="4" height="4"/><rect class="cls-10" x="104" y="32" width="4" height="4"/><rect class="cls-18" x="92" y="20" width="4" height="4"/><rect class="cls-12" x="92" y="24" width="4" height="4"/><rect class="cls-13" x="92" y="28" width="4" height="4"/><rect class="cls-14" x="92" y="32" width="4" height="4"/><rect class="cls-12" x="88" y="20" width="4" height="4"/><rect class="cls-18" x="88" y="24" width="4" height="4"/><rect class="cls-13" x="88" y="28" width="4" height="4"/><rect class="cls-14" x="88" y="32" width="4" height="4"/><rect class="cls-18" x="84" y="20" width="4" height="4"/><rect class="cls-11" x="84" y="24" width="4" height="4"/><rect class="cls-13" x="84" y="28" width="4" height="4"/><rect class="cls-14" x="84" y="32" width="4" height="4"/><rect class="cls-18" x="80" y="20" width="4" height="4"/><rect class="cls-12" x="80" y="24" width="4" height="4"/><rect class="cls-13" x="80" y="28" width="4" height="4"/><rect class="cls-14" x="80" y="32" width="4" height="4"/><rect class="cls-12" x="76" y="24" width="4" height="4"/><rect class="cls-11" x="76" y="28" width="4" height="4"/><rect class="cls-10" x="76" y="32" width="4" height="4"/><rect class="cls-11" x="72" y="28" width="4" height="4"/><rect class="cls-10" x="72" y="32" width="4" height="4"/></g></g></g></svg>