<svg xmlns="http://www.w3.org/2000/svg" viewBox="0 0 136 56"><defs><style>.cls-1{fill:#f7f7f7;}.cls-2{fill:#fbfbfb;}.cls-3{fill:#fff;}.cls-4{fill:#f6f6f6;}.cls-5{fill:#f3f3f3;}.cls-6{fill:#fafafa;}.cls-7{fill:#f4f4f4;}.cls-8{fill:#e8eaea;}.cls-9{fill:#fcfcfc;}.cls-10{fill:#e8e8e8;}.cls-11{fill:#ebebeb;}.cls-12{fill:#eaeaea;}.cls-13{fill:#d8d8d8;}.cls-14{fill:#e6e6e6;}.cls-15{fill:#e3e3e3;}.cls-16{fill:#e7e7e7;}.cls-17{fill:#ececec;}.cls-18{fill:#e4e4e4;}.cls-19{fill:#d5d5d5;}.cls-20{fill:#d1d1d1;}.cls-21{fill:#d4d4d4;}.cls-22{fill:#d2d2d2;}.cls-23{fill:#d9d9d9;}.cls-24{fill:#dadada;}.cls-25{fill:#c6c8c8;}</style></defs><title>cloud-1</title><g id="Layer_2" data-name="Layer 2"><g id="Layer_1-2" data-name="Layer 1"><g id="cloud-1"><rect class="cls-1" x="32" y="20" width="4" height="4"/><rect class="cls-2" x="44" y="20" width="4" height="4"/><rect class="cls-3" x="28" y="20" width="4" height="4"/><rect class="cls-4" x="36" y="20" width="4" height="4"/><rect class="cls-5" x="40" y="20" width="4" height="4"/><rect class="cls-6" x="52" width="4" height="4"/><rect class="cls-1" x="52" y="4" width="4" height="4"/><rect class="cls-5" x="52" y="8" width="4" height="4"/><rect class="cls-6" x="52" y="12" width="4" height="4"/><rect class="cls-4" x="52" y="16" width="4" height="4"/><rect class="cls-5" x="28" y="24" width="4" height="4"/><rect class="cls-4" x="32" y="24" width="4" height="4"/><rect class="cls-6" x="36" y="24" width="4" height="4"/><rect class="cls-6" x="40" y="24" width="4" height="4"/><rect class="cls-6" x="44" y="24" width="4" height="4"/><rect class="cls-6" x="56" width="4" height="4"/><rect class="cls-4" x="56" y="4" width="4" height="4"/><rect class="cls-7" x="56" y="8" width="4" height="4"/><rect class="cls-8" x="56" y="12" width="4" height="4"/><rect class="cls-5" x="56" y="16" width="4" height="4"/><rect class="cls-6" x="60" width="4" height="4"/><rect class="cls-2" x="60" y="4" width="4" height="4"/><rect class="cls-7" x="60" y="8" width="4" height="4"/><rect class="cls-2" x="60" y="12" width="4" height="4"/><rect class="cls-2" x="60" y="16" width="4" height="4"/><rect class="cls-2" x="48" width="4" height="4"/><rect class="cls-9" x="48" y="4" width="4" height="4"/><rect class="cls-4" x="48" y="8" width="4" height="4"/><rect class="cls-5" x="48" y="12" width="4" height="4"/><rect class="cls-6" x="48" y="16" width="4" height="4"/><rect class="cls-4" x="44" y="4" width="4" height="4"/><rect class="cls-9" x="44" y="8" width="4" height="4"/><rect class="cls-5" x="44" y="12" width="4" height="4"/><rect class="cls-6" x="44" y="16" width="4" height="4"/><rect class="cls-5" x="40" y="12" width="4" height="4"/><rect class="cls-6" x="40" y="16" width="4" height="4"/><rect class="cls-5" x="36" y="12" width="4" height="4"/><rect class="cls-6" x="36" y="16" width="4" height="4"/><rect class="cls-2" x="32" y="16" width="4" height="4"/><rect class="cls-2" x="28" y="16" width="4" height="4"/><rect class="cls-6" x="28" y="28" width="4" height="4"/><rect class="cls-6" x="32" y="28" width="4" height="4"/><rect class="cls-6" x="36" y="28" width="4" height="4"/><rect class="cls-6" x="40" y="28" width="4" height="4"/><rect class="cls-4" x="32" y="32" width="4" height="4"/><rect class="cls-9" x="28" y="32" width="4" height="4"/><rect class="cls-6" x="100" y="28" width="4" height="4"/><rect class="cls-6" x="104" y="28" width="4" height="4"/><rect class="cls-6" x="108" y="28" width="4" height="4"/><rect class="cls-1" x="124" y="40" width="4" height="4"/><rect class="cls-5" x="124" y="44" width="4" height="4"/><rect class="cls-7" x="128" y="44" width="4" height="4"/><rect class="cls-8" x="128" y="48" width="4" height="4"/><rect class="cls-7" x="132" y="44" width="4" height="4"/><rect class="cls-2" x="132" y="48" width="4" height="4"/><rect class="cls-2" x="120" y="36" width="4" height="4"/><rect class="cls-9" x="120" y="40" width="4" height="4"/><rect class="cls-6" x="116" y="36" width="4" height="4"/><rect class="cls-4" x="116" y="40" width="4" height="4"/><rect class="cls-1" x="112" y="32" width="4" height="4"/><rect class="cls-6" x="112" y="36" width="4" height="4"/><rect class="cls-9" x="112" y="40" width="4" height="4"/><rect class="cls-5" x="108" y="32" width="4" height="4"/><rect class="cls-6" x="108" y="36" width="4" height="4"/><rect class="cls-9" x="108" y="40" width="4" height="4"/><rect class="cls-4" x="104" y="32" width="4" height="4"/><rect class="cls-2" x="104" y="36" width="4" height="4"/><rect class="cls-4" x="104" y="40" width="4" height="4"/><rect class="cls-9" x="100" y="32" width="4" height="4"/><rect class="cls-5" x="100" y="36" width="4" height="4"/><rect class="cls-2" x="84" y="20" width="4" height="4"/><rect class="cls-2" x="80" y="20" width="4" height="4"/><rect class="cls-4" x="72" y="20" width="4" height="4"/><rect class="cls-5" x="76" y="20" width="4" height="4"/><rect class="cls-6" x="88" y="20" width="4" height="4"/><rect class="cls-5" x="88" y="8" width="4" height="4"/><rect class="cls-6" x="88" y="12" width="4" height="4"/><rect class="cls-4" x="88" y="16" width="4" height="4"/><rect class="cls-10" x="92" y="20" width="4" height="4"/><rect class="cls-6" x="76" y="24" width="4" height="4"/><rect class="cls-6" x="80" y="24" width="4" height="4"/><rect class="cls-4" x="84" y="24" width="4" height="4"/><rect class="cls-4" x="88" y="24" width="4" height="4"/><rect class="cls-5" x="92" y="24" width="4" height="4"/><rect class="cls-7" x="92" y="8" width="4" height="4"/><rect class="cls-8" x="92" y="12" width="4" height="4"/><rect class="cls-5" x="92" y="16" width="4" height="4"/><rect class="cls-10" x="96" y="20" width="4" height="4"/><rect class="cls-4" x="96" y="24" width="4" height="4"/><rect class="cls-2" x="96" y="12" width="4" height="4"/><rect class="cls-2" x="96" y="16" width="4" height="4"/><rect class="cls-4" x="84" y="8" width="4" height="4"/><rect class="cls-5" x="84" y="12" width="4" height="4"/><rect class="cls-6" x="84" y="16" width="4" height="4"/><rect class="cls-9" x="80" y="8" width="4" height="4"/><rect class="cls-5" x="80" y="12" width="4" height="4"/><rect class="cls-6" x="80" y="16" width="4" height="4"/><rect class="cls-1" x="76" y="8" width="4" height="4"/><rect class="cls-5" x="76" y="12" width="4" height="4"/><rect class="cls-6" x="76" y="16" width="4" height="4"/><rect class="cls-4" x="72" y="8" width="4" height="4"/><rect class="cls-5" x="72" y="12" width="4" height="4"/><rect class="cls-6" x="72" y="16" width="4" height="4"/><rect class="cls-4" x="68" y="4" width="4" height="4"/><rect class="cls-4" x="68" y="8" width="4" height="4"/><rect class="cls-1" x="68" y="12" width="4" height="4"/><rect class="cls-2" x="68" y="16" width="4" height="4"/><rect class="cls-5" x="64" width="4" height="4"/><rect class="cls-6" x="64" y="4" width="4" height="4"/><rect class="cls-4" x="64" y="8" width="4" height="4"/><rect class="cls-1" x="64" y="12" width="4" height="4"/><rect class="cls-2" x="64" y="16" width="4" height="4"/><rect class="cls-4" x="12" y="28" width="4" height="4"/><rect class="cls-4" x="16" y="28" width="4" height="4"/><rect class="cls-5" x="16" y="32" width="4" height="4"/><rect class="cls-6" x="16" y="36" width="4" height="4"/><rect class="cls-1" x="20" y="28" width="4" height="4"/><rect class="cls-5" x="20" y="32" width="4" height="4"/><rect class="cls-4" x="24" y="28" width="4" height="4"/><rect class="cls-5" x="24" y="32" width="4" height="4"/><rect class="cls-5" x="12" y="32" width="4" height="4"/><rect class="cls-2" x="12" y="36" width="4" height="4"/><rect class="cls-1" x="8" y="32" width="4" height="4"/><rect class="cls-6" x="8" y="36" width="4" height="4"/><rect class="cls-6" x="4" y="36" width="4" height="4"/><rect class="cls-4" x="96" y="28" width="4" height="4"/><rect class="cls-5" x="96" y="32" width="4" height="4"/><rect class="cls-11" x="48" y="20" width="4" height="4"/><rect class="cls-12" x="52" y="20" width="4" height="4"/><rect class="cls-13" x="56" y="20" width="4" height="4"/><rect class="cls-14" x="48" y="24" width="4" height="4"/><rect class="cls-14" x="52" y="24" width="4" height="4"/><rect class="cls-15" x="56" y="24" width="4" height="4"/><rect class="cls-13" x="60" y="20" width="4" height="4"/><rect class="cls-14" x="60" y="24" width="4" height="4"/><rect class="cls-12" x="44" y="28" width="4" height="4"/><rect class="cls-14" x="48" y="28" width="4" height="4"/><rect class="cls-14" x="52" y="28" width="4" height="4"/><rect class="cls-15" x="52" y="32" width="4" height="4"/><rect class="cls-16" x="56" y="28" width="4" height="4"/><rect class="cls-15" x="48" y="32" width="4" height="4"/><rect class="cls-11" x="48" y="36" width="4" height="4"/><rect class="cls-16" x="44" y="32" width="4" height="4"/><rect class="cls-12" x="44" y="36" width="4" height="4"/><rect class="cls-16" x="40" y="32" width="4" height="4"/><rect class="cls-12" x="40" y="36" width="4" height="4"/><rect class="cls-15" x="36" y="32" width="4" height="4"/><rect class="cls-12" x="36" y="36" width="4" height="4"/><rect class="cls-11" x="32" y="36" width="4" height="4"/><rect class="cls-14" x="32" y="40" width="4" height="4"/><rect class="cls-15" x="28" y="36" width="4" height="4"/><rect class="cls-12" x="28" y="40" width="4" height="4"/><rect class="cls-12" x="124" y="48" width="4" height="4"/><rect class="cls-14" x="120" y="44" width="4" height="4"/><rect class="cls-15" x="120" y="48" width="4" height="4"/><rect class="cls-17" x="116" y="44" width="4" height="4"/><rect class="cls-15" x="116" y="48" width="4" height="4"/><rect class="cls-16" x="112" y="44" width="4" height="4"/><rect class="cls-15" x="112" y="48" width="4" height="4"/><rect class="cls-14" x="108" y="44" width="4" height="4"/><rect class="cls-15" x="108" y="48" width="4" height="4"/><rect class="cls-14" x="104" y="44" width="4" height="4"/><rect class="cls-16" x="104" y="48" width="4" height="4"/><rect class="cls-12" x="100" y="40" width="4" height="4"/><rect class="cls-14" x="100" y="44" width="4" height="4"/><rect class="cls-16" x="100" y="48" width="4" height="4"/><rect class="cls-11" x="100" y="52" width="4" height="4"/><rect class="cls-16" x="68" y="20" width="4" height="4"/><rect class="cls-3" x="64" y="20" width="4" height="4"/><rect class="cls-15" x="64" y="24" width="4" height="4"/><rect class="cls-14" x="68" y="24" width="4" height="4"/><rect class="cls-12" x="72" y="24" width="4" height="4"/><rect class="cls-16" x="16" y="40" width="4" height="4"/><rect class="cls-12" x="20" y="36" width="4" height="4"/><rect class="cls-14" x="20" y="40" width="4" height="4"/><rect class="cls-12" x="24" y="36" width="4" height="4"/><rect class="cls-11" x="24" y="40" width="4" height="4"/><rect class="cls-17" x="12" y="40" width="4" height="4"/><rect class="cls-14" x="8" y="40" width="4" height="4"/><rect class="cls-17" x="8" y="44" width="4" height="4"/><rect class="cls-17" x="4" y="40" width="4" height="4"/><rect class="cls-16" x="4" y="44" width="4" height="4"/><rect class="cls-17" y="40" width="4" height="4"/><rect class="cls-14" y="44" width="4" height="4"/><rect class="cls-12" x="72" y="28" width="4" height="4"/><rect class="cls-12" x="76" y="28" width="4" height="4"/><rect class="cls-12" x="80" y="28" width="4" height="4"/><rect class="cls-14" x="84" y="28" width="4" height="4"/><rect class="cls-14" x="88" y="28" width="4" height="4"/><rect class="cls-15" x="88" y="32" width="4" height="4"/><rect class="cls-16" x="92" y="28" width="4" height="4"/><rect class="cls-15" x="92" y="32" width="4" height="4"/><rect class="cls-12" x="92" y="36" width="4" height="4"/><rect class="cls-14" x="92" y="40" width="4" height="4"/><rect class="cls-18" x="92" y="44" width="4" height="4"/><rect class="cls-12" x="96" y="36" width="4" height="4"/><rect class="cls-11" x="96" y="40" width="4" height="4"/><rect class="cls-18" x="96" y="44" width="4" height="4"/><rect class="cls-11" x="96" y="48" width="4" height="4"/><rect class="cls-15" x="84" y="32" width="4" height="4"/><rect class="cls-16" x="80" y="32" width="4" height="4"/><rect class="cls-16" x="76" y="32" width="4" height="4"/><rect class="cls-15" x="72" y="32" width="4" height="4"/><rect class="cls-13" x="52" y="36" width="4" height="4"/><rect class="cls-19" x="52" y="40" width="4" height="4"/><rect class="cls-20" x="52" y="44" width="4" height="4"/><rect class="cls-20" x="56" y="32" width="4" height="4"/><rect class="cls-13" x="56" y="36" width="4" height="4"/><rect class="cls-21" x="56" y="40" width="4" height="4"/><rect class="cls-22" x="56" y="44" width="4" height="4"/><rect class="cls-21" x="60" y="28" width="4" height="4"/><rect class="cls-20" x="60" y="32" width="4" height="4"/><rect class="cls-13" x="60" y="36" width="4" height="4"/><rect class="cls-23" x="60" y="40" width="4" height="4"/><rect class="cls-22" x="60" y="44" width="4" height="4"/><rect class="cls-24" x="48" y="40" width="4" height="4"/><rect class="cls-21" x="48" y="44" width="4" height="4"/><rect class="cls-21" x="44" y="40" width="4" height="4"/><rect class="cls-24" x="44" y="44" width="4" height="4"/><rect class="cls-24" x="40" y="40" width="4" height="4"/><rect class="cls-19" x="40" y="44" width="4" height="4"/><rect class="cls-24" x="36" y="40" width="4" height="4"/><rect class="cls-21" x="36" y="44" width="4" height="4"/><rect class="cls-21" x="32" y="44" width="4" height="4"/><rect class="cls-19" x="32" y="48" width="4" height="4"/><rect class="cls-21" x="28" y="44" width="4" height="4"/><rect class="cls-19" x="28" y="48" width="4" height="4"/><rect class="cls-13" x="116" y="52" width="4" height="4"/><rect class="cls-13" x="112" y="52" width="4" height="4"/><rect class="cls-13" x="108" y="52" width="4" height="4"/><rect class="cls-23" x="104" y="52" width="4" height="4"/><rect class="cls-20" x="16" y="44" width="4" height="4"/><rect class="cls-13" x="16" y="48" width="4" height="4"/><rect class="cls-22" x="20" y="44" width="4" height="4"/><rect class="cls-25" x="20" y="48" width="4" height="4"/><rect class="cls-22" x="24" y="44" width="4" height="4"/><rect class="cls-23" x="24" y="48" width="4" height="4"/><rect class="cls-21" x="12" y="44" width="4" height="4"/><rect class="cls-20" x="12" y="48" width="4" height="4"/><rect class="cls-20" x="8" y="48" width="4" height="4"/><rect class="cls-20" x="4" y="48" width="4" height="4"/><rect class="cls-20" y="48" width="4" height="4"/><rect class="cls-13" x="64" y="28" width="4" height="4"/><rect class="cls-13" x="68" y="28" width="4" height="4"/><rect class="cls-13" x="88" y="36" width="4" height="4"/><rect class="cls-19" x="88" y="40" width="4" height="4"/><rect class="cls-20" x="88" y="44" width="4" height="4"/><rect class="cls-13" x="88" y="48" width="4" height="4"/><rect class="cls-25" x="92" y="48" width="4" height="4"/><rect class="cls-23" x="84" y="36" width="4" height="4"/><rect class="cls-24" x="84" y="40" width="4" height="4"/><rect class="cls-21" x="84" y="44" width="4" height="4"/><rect class="cls-20" x="84" y="48" width="4" height="4"/><rect class="cls-13" x="80" y="36" width="4" height="4"/><rect class="cls-21" x="80" y="40" width="4" height="4"/><rect class="cls-24" x="80" y="44" width="4" height="4"/><rect class="cls-20" x="80" y="48" width="4" height="4"/><rect class="cls-13" x="76" y="36" width="4" height="4"/><rect class="cls-24" x="76" y="40" width="4" height="4"/><rect class="cls-19" x="76" y="44" width="4" height="4"/><rect class="cls-20" x="76" y="48" width="4" height="4"/><rect class="cls-13" x="72" y="36" width="4" height="4"/><rect class="cls-24" x="72" y="40" width="4" height="4"/><rect class="cls-21" x="72" y="44" width="4" height="4"/><rect class="cls-20" x="72" y="48" width="4" height="4"/><rect class="cls-21" x="68" y="32" width="4" height="4"/><rect class="cls-23" x="68" y="36" width="4" height="4"/><rect class="cls-21" x="68" y="40" width="4" height="4"/><rect class="cls-21" x="68" y="44" width="4" height="4"/><rect class="cls-19" x="68" y="48" width="4" height="4"/><rect class="cls-24" x="64" y="32" width="4" height="4"/><rect class="cls-20" x="64" y="36" width="4" height="4"/><rect class="cls-13" x="64" y="40" width="4" height="4"/><rect class="cls-21" x="64" y="44" width="4" height="4"/></g></g></g></svg>