<svg xmlns="http://www.w3.org/2000/svg" viewBox="0 0 104 40"><defs><style>.cls-1{fill:#d7d7d7;}.cls-2{fill:#efefef;}.cls-3{fill:#eaeaea;}.cls-4{fill:#f7f7f7;}.cls-5{fill:#f0f0f0;}.cls-6{fill:#f8f8f8;}.cls-7{fill:#f9f9f9;}.cls-8{fill:#fff;}.cls-9{fill:#e9e9e9;}.cls-10{fill:#ebebeb;}.cls-11{fill:#d2d2d2;}.cls-12{fill:#cbcbcb;}.cls-13{fill:#d9d9d9;}.cls-14{fill:#d1d1d1;}.cls-15{fill:#cdcdcd;}.cls-16{fill:#dbdbdb;}.cls-17{fill:#ccc;}.cls-18{fill:#dadada;}.cls-19{fill:#b8b8b8;}</style></defs><title>cloud-3</title><g id="Layer_2" data-name="Layer 2"><g id="Layer_1-2" data-name="Layer 1"><g id="cloud-3"><rect class="cls-1" x="40" y="4" width="4" height="4"/><rect class="cls-2" x="32" y="8" width="4" height="4"/><rect class="cls-2" x="36" y="8" width="4" height="4"/><rect class="cls-3" x="40" y="8" width="4" height="4"/><rect class="cls-1" x="44" y="4" width="4" height="4"/><rect class="cls-2" x="44" y="8" width="4" height="4"/><rect class="cls-4" x="20" y="12" width="4" height="4"/><rect class="cls-4" x="24" y="12" width="4" height="4"/><rect class="cls-4" x="28" y="12" width="4" height="4"/><rect class="cls-2" x="32" y="12" width="4" height="4"/><rect class="cls-2" x="36" y="12" width="4" height="4"/><rect class="cls-3" x="36" y="16" width="4" height="4"/><rect class="cls-4" x="36" y="20" width="4" height="4"/><rect class="cls-5" x="40" y="12" width="4" height="4"/><rect class="cls-3" x="40" y="16" width="4" height="4"/><rect class="cls-4" x="40" y="20" width="4" height="4"/><rect class="cls-2" x="44" y="12" width="4" height="4"/><rect class="cls-3" x="44" y="16" width="4" height="4"/><rect class="cls-4" x="44" y="20" width="4" height="4"/><rect class="cls-6" x="44" y="24" width="4" height="4"/><rect class="cls-3" x="32" y="16" width="4" height="4"/><rect class="cls-6" x="32" y="20" width="4" height="4"/><rect class="cls-5" x="28" y="16" width="4" height="4"/><rect class="cls-4" x="28" y="20" width="4" height="4"/><rect class="cls-2" x="28" y="24" width="4" height="4"/><rect class="cls-5" x="24" y="16" width="4" height="4"/><rect class="cls-4" x="24" y="20" width="4" height="4"/><rect class="cls-7" x="24" y="24" width="4" height="4"/><rect class="cls-3" x="20" y="16" width="4" height="4"/><rect class="cls-4" x="20" y="20" width="4" height="4"/><rect class="cls-7" x="20" y="24" width="4" height="4"/><rect class="cls-6" x="16" y="20" width="4" height="4"/><rect class="cls-2" x="16" y="24" width="4" height="4"/><rect class="cls-4" x="12" y="24" width="4" height="4"/><rect class="cls-4" x="84" y="12" width="4" height="4"/><rect class="cls-4" x="88" y="12" width="4" height="4"/><rect class="cls-4" x="100" y="20" width="4" height="4"/><rect class="cls-2" x="100" y="24" width="4" height="4"/><rect class="cls-5" x="96" y="16" width="4" height="4"/><rect class="cls-4" x="96" y="20" width="4" height="4"/><rect class="cls-7" x="96" y="24" width="4" height="4"/><rect class="cls-3" x="92" y="16" width="4" height="4"/><rect class="cls-4" x="92" y="20" width="4" height="4"/><rect class="cls-7" x="92" y="24" width="4" height="4"/><rect class="cls-2" x="88" y="16" width="4" height="4"/><rect class="cls-6" x="88" y="20" width="4" height="4"/><rect class="cls-2" x="88" y="24" width="4" height="4"/><rect class="cls-7" x="84" y="16" width="4" height="4"/><rect class="cls-3" x="84" y="20" width="4" height="4"/><rect class="cls-4" x="84" y="24" width="4" height="4"/><rect class="cls-5" x="52" y="4" width="4" height="4"/><rect class="cls-6" x="64" y="4" width="4" height="4"/><rect class="cls-8" x="48" y="4" width="4" height="4"/><rect class="cls-2" x="56" y="4" width="4" height="4"/><rect class="cls-3" x="60" y="4" width="4" height="4"/><rect class="cls-9" x="48" y="8" width="4" height="4"/><rect class="cls-2" x="52" y="8" width="4" height="4"/><rect class="cls-4" x="56" y="8" width="4" height="4"/><rect class="cls-4" x="60" y="8" width="4" height="4"/><rect class="cls-4" x="64" y="8" width="4" height="4"/><rect class="cls-2" x="68" y="8" width="4" height="4"/><rect class="cls-2" x="72" y="8" width="4" height="4"/><rect class="cls-3" x="76" y="8" width="4" height="4"/><rect class="cls-4" x="56" width="4" height="4"/><rect class="cls-6" x="52" width="4" height="4"/><rect class="cls-6" x="48" width="4" height="4"/><rect class="cls-9" y="28" width="4" height="4"/><rect class="cls-10" x="4" y="28" width="4" height="4"/><rect class="cls-10" x="8" y="28" width="4" height="4"/><rect class="cls-4" x="48" y="12" width="4" height="4"/><rect class="cls-4" x="52" y="12" width="4" height="4"/><rect class="cls-4" x="60" y="12" width="4" height="4"/><rect class="cls-4" x="64" y="12" width="4" height="4"/><rect class="cls-2" x="68" y="12" width="4" height="4"/><rect class="cls-2" x="72" y="12" width="4" height="4"/><rect class="cls-3" x="72" y="16" width="4" height="4"/><rect class="cls-4" x="72" y="20" width="4" height="4"/><rect class="cls-5" x="72" y="24" width="4" height="4"/><rect class="cls-5" x="76" y="12" width="4" height="4"/><rect class="cls-3" x="76" y="16" width="4" height="4"/><rect class="cls-4" x="76" y="20" width="4" height="4"/><rect class="cls-2" x="76" y="24" width="4" height="4"/><rect class="cls-2" x="80" y="12" width="4" height="4"/><rect class="cls-3" x="80" y="16" width="4" height="4"/><rect class="cls-4" x="80" y="20" width="4" height="4"/><rect class="cls-6" x="80" y="24" width="4" height="4"/><rect class="cls-3" x="68" y="16" width="4" height="4"/><rect class="cls-6" x="68" y="20" width="4" height="4"/><rect class="cls-7" x="68" y="24" width="4" height="4"/><rect class="cls-5" x="64" y="16" width="4" height="4"/><rect class="cls-2" x="52" y="16" width="4" height="4"/><rect class="cls-6" x="52" y="20" width="4" height="4"/><rect class="cls-7" x="48" y="16" width="4" height="4"/><rect class="cls-3" x="48" y="20" width="4" height="4"/><rect class="cls-4" x="48" y="24" width="4" height="4"/><rect class="cls-11" x="36" y="24" width="4" height="4"/><rect class="cls-12" x="36" y="28" width="4" height="4"/><rect class="cls-13" x="36" y="32" width="4" height="4"/><rect class="cls-14" x="40" y="24" width="4" height="4"/><rect class="cls-15" x="40" y="28" width="4" height="4"/><rect class="cls-15" x="44" y="28" width="4" height="4"/><rect class="cls-16" x="32" y="24" width="4" height="4"/><rect class="cls-14" x="32" y="28" width="4" height="4"/><rect class="cls-17" x="32" y="32" width="4" height="4"/><rect class="cls-16" x="28" y="28" width="4" height="4"/><rect class="cls-17" x="28" y="32" width="4" height="4"/><rect class="cls-11" x="24" y="28" width="4" height="4"/><rect class="cls-17" x="24" y="32" width="4" height="4"/><rect class="cls-13" x="24" y="36" width="4" height="4"/><rect class="cls-14" x="20" y="28" width="4" height="4"/><rect class="cls-17" x="20" y="32" width="4" height="4"/><rect class="cls-13" x="20" y="36" width="4" height="4"/><rect class="cls-14" x="16" y="28" width="4" height="4"/><rect class="cls-11" x="16" y="32" width="4" height="4"/><rect class="cls-18" x="16" y="36" width="4" height="4"/><rect class="cls-14" x="12" y="28" width="4" height="4"/><rect class="cls-11" x="12" y="32" width="4" height="4"/><rect class="cls-18" x="12" y="36" width="4" height="4"/><rect class="cls-11" x="96" y="28" width="4" height="4"/><rect class="cls-14" x="92" y="28" width="4" height="4"/><rect class="cls-14" x="88" y="28" width="4" height="4"/><rect class="cls-14" x="84" y="28" width="4" height="4"/><rect class="cls-11" x="84" y="32" width="4" height="4"/><rect class="cls-13" y="32" width="4" height="4"/><rect class="cls-14" y="36" width="4" height="4"/><rect class="cls-19" x="4" y="32" width="4" height="4"/><rect class="cls-17" x="4" y="36" width="4" height="4"/><rect class="cls-18" x="8" y="32" width="4" height="4"/><rect class="cls-18" x="8" y="36" width="4" height="4"/><rect class="cls-13" x="56" y="12" width="4" height="4"/><rect class="cls-12" x="72" y="28" width="4" height="4"/><rect class="cls-13" x="72" y="32" width="4" height="4"/><rect class="cls-15" x="76" y="28" width="4" height="4"/><rect class="cls-19" x="76" y="32" width="4" height="4"/><rect class="cls-15" x="80" y="28" width="4" height="4"/><rect class="cls-18" x="80" y="32" width="4" height="4"/><rect class="cls-14" x="68" y="28" width="4" height="4"/><rect class="cls-17" x="68" y="32" width="4" height="4"/><rect class="cls-13" x="64" y="20" width="4" height="4"/><rect class="cls-14" x="64" y="24" width="4" height="4"/><rect class="cls-16" x="64" y="28" width="4" height="4"/><rect class="cls-17" x="64" y="32" width="4" height="4"/><rect class="cls-11" x="60" y="16" width="4" height="4"/><rect class="cls-13" x="60" y="20" width="4" height="4"/><rect class="cls-16" x="60" y="24" width="4" height="4"/><rect class="cls-11" x="60" y="28" width="4" height="4"/><rect class="cls-17" x="60" y="32" width="4" height="4"/><rect class="cls-17" x="56" y="16" width="4" height="4"/><rect class="cls-13" x="56" y="20" width="4" height="4"/><rect class="cls-16" x="56" y="24" width="4" height="4"/><rect class="cls-14" x="56" y="28" width="4" height="4"/><rect class="cls-17" x="56" y="32" width="4" height="4"/><rect class="cls-14" x="52" y="24" width="4" height="4"/><rect class="cls-14" x="52" y="28" width="4" height="4"/><rect class="cls-14" x="48" y="28" width="4" height="4"/></g></g></g></svg>