<svg xmlns="http://www.w3.org/2000/svg" viewBox="0 0 36 27.99"><defs><style>.cls-1{fill:#22b573;}.cls-2{fill:#494f51;}.cls-3{fill:#ddd;}.cls-4{fill:#1aa864;}.cls-5{fill:#3b4244;}.cls-6{fill:#3b4042;}.cls-7{fill:#2e3335;}.cls-8{fill:#1fa669;}</style></defs><title>crazyminer-2</title><g id="Layer_2" data-name="Layer 2"><g id="Layer_1-2" data-name="Layer 1"><g id="crazyminer-2"><rect class="cls-1" x="16" y="4" width="4" height="4"/><rect class="cls-1" x="16" y="8" width="4" height="4"/><rect class="cls-1" x="16" y="12" width="4" height="4"/><rect class="cls-2" y="8" width="4" height="4"/><rect class="cls-3" x="4" width="4" height="4"/><rect class="cls-3" x="8" width="4" height="4"/><rect class="cls-4" x="4" y="4" width="4" height="4"/><rect class="cls-4" x="8" y="4" width="4" height="4"/><rect class="cls-1" x="12" y="4" width="4" height="4"/><rect class="cls-5" y="19.99" width="4" height="4"/><rect class="cls-5" y="15.99" width="4" height="4"/><rect class="cls-1" x="4" y="12" width="4" height="4"/><rect class="cls-1" x="8" y="12" width="4" height="4"/><rect class="cls-1" x="12" y="12" width="4" height="4"/><rect class="cls-2" x="4" y="15.99" width="4" height="4"/><rect class="cls-1" x="8" y="15.99" width="4" height="4"/><rect class="cls-3" x="12" y="15.99" width="4" height="4"/><rect class="cls-5" y="12" width="4" height="4"/><rect class="cls-4" x="4" y="8" width="4" height="4"/><rect class="cls-4" x="8" y="8" width="4" height="4"/><rect class="cls-1" x="12" y="8" width="4" height="4"/><rect class="cls-2" x="4" y="19.99" width="4" height="4"/><rect class="cls-2" x="8" y="19.99" width="4" height="4"/><rect class="cls-5" x="12" y="19.99" width="4" height="4"/><rect class="cls-5" x="4" y="23.99" width="4" height="4"/><rect class="cls-5" x="8" y="23.99" width="4" height="4"/><rect class="cls-3" x="24" width="4" height="4"/><rect class="cls-4" x="24" y="4" width="4" height="4"/><rect class="cls-1" x="20" y="4" width="4" height="4"/><rect class="cls-1" x="24" y="12" width="4" height="4"/><rect class="cls-1" x="20" y="12" width="4" height="4"/><rect class="cls-1" x="24" y="15.99" width="4" height="4"/><rect class="cls-3" x="20" y="15.99" width="4" height="4"/><rect class="cls-4" x="24" y="8" width="4" height="4"/><rect class="cls-1" x="20" y="8" width="4" height="4"/><rect class="cls-6" x="32" y="8" width="4" height="4"/><rect class="cls-3" x="28" width="4" height="4"/><rect class="cls-4" x="28" y="4" width="4" height="4"/><rect class="cls-7" x="32" y="19.99" width="4" height="4"/><rect class="cls-7" x="32" y="15.99" width="4" height="4"/><rect class="cls-8" x="28" y="12" width="4" height="4"/><rect class="cls-6" x="28" y="15.99" width="4" height="4"/><rect class="cls-7" x="32" y="12" width="4" height="4"/><rect class="cls-4" x="28" y="8" width="4" height="4"/><rect class="cls-6" x="28" y="19.99" width="4" height="4"/><rect class="cls-2" x="24" y="19.99" width="4" height="4"/><rect class="cls-5" x="20" y="19.99" width="4" height="4"/><rect class="cls-5" x="28" y="23.99" width="4" height="4"/><rect class="cls-5" x="24" y="23.99" width="4" height="4"/></g></g></g></svg>