<svg xmlns="http://www.w3.org/2000/svg" viewBox="0 0 36 36"><defs><style>.cls-1{fill:#6e9545;}.cls-2{fill:#6b4c38;}.cls-3{fill:#6da045;}.cls-4{fill:#78ab4b;}.cls-5{fill:#9d7155;}.cls-6{fill:#603f2c;}.cls-7{fill:#cd986c;}.cls-8{fill:#674c36;}.cls-9{fill:#87644e;}.cls-10{fill:#79af45;}.cls-11{fill:#6c9e3c;}.cls-12{fill:#896f4d;}.cls-13{fill:#775745;}.cls-14{fill:#7f5a45;}.cls-15{fill:#4b3727;}.cls-16{fill:#5b4335;}.cls-17{fill:#815d46;}.cls-18{fill:#b1835d;}.cls-19{fill:#6b4f3e;}.cls-20{fill:#68412c;}.cls-21{fill:#4f3829;}.cls-22{fill:#6d583d;}.cls-23{fill:#442d1f;}</style></defs><title>dirt-1</title><g id="Layer_2" data-name="Layer 2"><g id="Layer_1-2" data-name="Layer 1"><g id="dirt-1"><rect class="cls-1" y="4" width="4" height="4"/><rect class="cls-2" y="8" width="4" height="4"/><rect class="cls-3" x="4" y="4" width="4" height="4"/><rect class="cls-4" x="4" y="8" width="4" height="4"/><rect class="cls-5" x="4" y="20" width="4" height="4"/><rect class="cls-1" x="8" y="4" width="4" height="4"/><rect class="cls-6" x="8" y="8" width="4" height="4"/><rect class="cls-7" x="4" y="16" width="4" height="4"/><rect class="cls-8" x="8" y="20" width="4" height="4"/><rect class="cls-9" x="4" y="24" width="4" height="4"/><rect class="cls-4" x="12" width="4" height="4"/><rect class="cls-8" x="12" y="4" width="4" height="4"/><rect class="cls-2" x="12" y="8" width="4" height="4"/><rect class="cls-8" x="4" y="12" width="4" height="4"/><rect class="cls-9" x="8" y="16" width="4" height="4"/><rect class="cls-9" x="12" y="20" width="4" height="4"/><rect class="cls-5" x="12" y="24" width="4" height="4"/><rect class="cls-10" x="16" width="4" height="4"/><rect class="cls-11" x="16" y="4" width="4" height="4"/><rect class="cls-8" x="16" y="8" width="4" height="4"/><rect class="cls-9" x="8" y="12" width="4" height="4"/><rect class="cls-7" x="12" y="16" width="4" height="4"/><rect class="cls-7" x="16" y="20" width="4" height="4"/><rect class="cls-2" x="24" y="4" width="4" height="4"/><rect class="cls-2" x="24" y="8" width="4" height="4"/><rect class="cls-9" x="16" y="12" width="4" height="4"/><rect class="cls-2" x="16" y="16" width="4" height="4"/><rect class="cls-1" x="28" width="4" height="4"/><rect class="cls-4" x="32" y="4" width="4" height="4"/><rect class="cls-8" x="32" y="8" width="4" height="4"/><rect class="cls-5" x="24" y="12" width="4" height="4"/><rect class="cls-7" x="24" y="16" width="4" height="4"/><rect class="cls-4" width="4" height="4"/><rect class="cls-1" x="4" width="4" height="4"/><rect class="cls-1" x="8" width="4" height="4"/><rect class="cls-4" x="20" width="4" height="4"/><rect class="cls-4" x="20" y="4" width="4" height="4"/><rect class="cls-4" x="20" y="8" width="4" height="4"/><rect class="cls-12" x="12" y="12" width="4" height="4"/><rect class="cls-1" x="24" width="4" height="4"/><rect class="cls-1" x="28" y="4" width="4" height="4"/><rect class="cls-4" x="28" y="8" width="4" height="4"/><rect class="cls-1" x="20" y="12" width="4" height="4"/><rect class="cls-8" x="20" y="16" width="4" height="4"/><rect class="cls-4" x="32" width="4" height="4"/><rect class="cls-1" x="28" y="12" width="4" height="4"/><rect class="cls-2" x="28" y="16" width="4" height="4"/><rect class="cls-7" x="28" y="20" width="4" height="4"/><rect class="cls-2" x="32" y="12" width="4" height="4"/><rect class="cls-9" x="32" y="16" width="4" height="4"/><rect class="cls-5" x="32" y="20" width="4" height="4"/><rect class="cls-7" x="8" y="24" width="4" height="4"/><rect class="cls-9" x="16" y="24" width="4" height="4"/><rect class="cls-13" x="20" y="20" width="4" height="4"/><rect class="cls-9" x="20" y="24" width="4" height="4"/><rect class="cls-12" x="24" y="20" width="4" height="4"/><rect class="cls-7" x="24" y="24" width="4" height="4"/><rect class="cls-14" x="28" y="24" width="4" height="4"/><rect class="cls-9" x="32" y="24" width="4" height="4"/><rect class="cls-15" y="12" width="4" height="4"/><rect class="cls-16" y="16" width="4" height="4"/><rect class="cls-17" y="20" width="4" height="4"/><rect class="cls-18" y="24" width="4" height="4"/><rect class="cls-17" y="28" width="4" height="4"/><rect class="cls-19" x="8" y="28" width="4" height="4"/><rect class="cls-20" y="32" width="4" height="4"/><rect class="cls-21" x="4" y="28" width="4" height="4"/><rect class="cls-22" x="12" y="28" width="4" height="4"/><rect class="cls-22" x="16" y="28" width="4" height="4"/><rect class="cls-23" x="20" y="28" width="4" height="4"/><rect class="cls-19" x="24" y="28" width="4" height="4"/><rect class="cls-22" x="28" y="28" width="4" height="4"/><rect class="cls-17" x="32" y="28" width="4" height="4"/><rect class="cls-17" x="8" y="32" width="4" height="4"/><rect class="cls-21" x="4" y="32" width="4" height="4"/><rect class="cls-15" x="12" y="32" width="4" height="4"/><rect class="cls-19" x="16" y="32" width="4" height="4"/><rect class="cls-21" x="20" y="32" width="4" height="4"/><rect class="cls-22" x="24" y="32" width="4" height="4"/><rect class="cls-23" x="28" y="32" width="4" height="4"/><rect class="cls-15" x="32" y="32" width="4" height="4"/></g></g></g></svg>