<svg xmlns="http://www.w3.org/2000/svg" viewBox="0 0 36 36"><defs><style>.cls-1{fill:#9d7155;}.cls-2{fill:#896f4d;}.cls-3{fill:#87644e;}.cls-4{fill:#674c36;}.cls-5{fill:#603f2c;}.cls-6{fill:#cd986c;}.cls-7{fill:#6b4c38;}.cls-8{fill:#775745;}.cls-9{fill:#7f5a45;}.cls-10{fill:#5b4335;}.cls-11{fill:#815d46;}.cls-12{fill:#b1835d;}.cls-13{fill:#4b3727;}.cls-14{fill:#6b4f3e;}.cls-15{fill:#4f3829;}.cls-16{fill:#68412c;}.cls-17{fill:#6d583d;}.cls-18{fill:#b0754e;}.cls-19{fill:#442d1f;}.cls-20{fill:#634636;}</style></defs><title>dirt-7</title><g id="Layer_2" data-name="Layer 2"><g id="Layer_1-2" data-name="Layer 1"><g id="dirt-7"><rect class="cls-1" x="12" y="8" width="4" height="4"/><rect class="cls-2" x="12" y="12" width="4" height="4"/><rect class="cls-3" x="16" y="8" width="4" height="4"/><rect class="cls-4" x="16" y="12" width="4" height="4"/><rect class="cls-3" x="20" y="8" width="4" height="4"/><rect class="cls-5" x="20" y="12" width="4" height="4"/><rect class="cls-3" x="8" width="4" height="4"/><rect class="cls-6" x="12" width="4" height="4"/><rect class="cls-7" x="16" width="4" height="4"/><rect class="cls-6" x="24" width="4" height="4"/><rect class="cls-4" x="20" width="4" height="4"/><rect class="cls-7" x="28" width="4" height="4"/><rect class="cls-4" x="32" width="4" height="4"/><rect class="cls-4" x="8" y="4" width="4" height="4"/><rect class="cls-3" x="12" y="4" width="4" height="4"/><rect class="cls-6" x="16" y="4" width="4" height="4"/><rect class="cls-6" x="28" y="4" width="4" height="4"/><rect class="cls-1" x="32" y="4" width="4" height="4"/><rect class="cls-8" x="20" y="4" width="4" height="4"/><rect class="cls-2" x="24" y="4" width="4" height="4"/><rect class="cls-8" x="24" y="8" width="4" height="4"/><rect class="cls-4" x="24" y="12" width="4" height="4"/><rect class="cls-9" x="28" y="8" width="4" height="4"/><rect class="cls-7" x="28" y="12" width="4" height="4"/><rect class="cls-3" x="32" y="8" width="4" height="4"/><rect class="cls-4" x="32" y="12" width="4" height="4"/><rect class="cls-10" y="16" width="4" height="4"/><rect class="cls-11" y="20" width="4" height="4"/><rect class="cls-12" y="24" width="4" height="4"/><rect class="cls-11" y="28" width="4" height="4"/><rect class="cls-11" x="4" y="20" width="4" height="4"/><rect class="cls-12" x="4" y="16" width="4" height="4"/><rect class="cls-13" x="8" y="20" width="4" height="4"/><rect class="cls-14" x="4" y="24" width="4" height="4"/><rect class="cls-14" x="8" y="28" width="4" height="4"/><rect class="cls-14" x="8" y="16" width="4" height="4"/><rect class="cls-14" x="12" y="20" width="4" height="4"/><rect class="cls-11" x="12" y="24" width="4" height="4"/><rect class="cls-12" x="12" y="16" width="4" height="4"/><rect class="cls-12" x="16" y="20" width="4" height="4"/><rect class="cls-15" x="16" y="16" width="4" height="4"/><rect class="cls-12" x="24" y="16" width="4" height="4"/><rect class="cls-13" x="20" y="16" width="4" height="4"/><rect class="cls-15" x="28" y="16" width="4" height="4"/><rect class="cls-12" x="28" y="20" width="4" height="4"/><rect class="cls-13" x="32" y="16" width="4" height="4"/><rect class="cls-11" x="32" y="20" width="4" height="4"/><rect class="cls-16" y="32" width="4" height="4"/><rect class="cls-15" x="4" y="28" width="4" height="4"/><rect class="cls-12" x="8" y="24" width="4" height="4"/><rect class="cls-12" x="12" y="28" width="4" height="4"/><rect class="cls-17" x="16" y="24" width="4" height="4"/><rect class="cls-18" x="16" y="28" width="4" height="4"/><rect class="cls-10" x="20" y="20" width="4" height="4"/><rect class="cls-14" x="20" y="24" width="4" height="4"/><rect class="cls-19" x="20" y="28" width="4" height="4"/><rect class="cls-17" x="24" y="20" width="4" height="4"/><rect class="cls-10" x="24" y="24" width="4" height="4"/><rect class="cls-12" x="24" y="28" width="4" height="4"/><rect class="cls-18" x="28" y="24" width="4" height="4"/><rect class="cls-15" x="28" y="28" width="4" height="4"/><rect class="cls-14" x="32" y="24" width="4" height="4"/><rect class="cls-20" x="32" y="28" width="4" height="4"/><rect class="cls-10" width="4" height="4"/><rect class="cls-11" y="4" width="4" height="4"/><rect class="cls-12" y="8" width="4" height="4"/><rect class="cls-11" y="12" width="4" height="4"/><rect class="cls-14" x="4" y="8" width="4" height="4"/><rect class="cls-14" x="8" y="12" width="4" height="4"/><rect class="cls-15" x="4" y="12" width="4" height="4"/><rect class="cls-12" x="8" y="8" width="4" height="4"/><rect class="cls-12" x="4" width="4" height="4"/><rect class="cls-11" x="4" y="4" width="4" height="4"/><rect class="cls-11" x="8" y="32" width="4" height="4"/><rect class="cls-15" x="4" y="32" width="4" height="4"/><rect class="cls-13" x="12" y="32" width="4" height="4"/><rect class="cls-14" x="16" y="32" width="4" height="4"/><rect class="cls-20" x="20" y="32" width="4" height="4"/><rect class="cls-17" x="24" y="32" width="4" height="4"/><rect class="cls-19" x="28" y="32" width="4" height="4"/><rect class="cls-14" x="32" y="32" width="4" height="4"/></g></g></g></svg>