<svg xmlns="http://www.w3.org/2000/svg" viewBox="0 0 280.23 64"><defs><style>.cls-1{fill:#6b4c38;}.cls-2{fill:#674c36;}.cls-3{fill:#775745;}.cls-4{fill:#9d7155;}.cls-5{fill:#cd986c;}.cls-6{fill:#87644e;}.cls-7{fill:#896f4d;}.cls-8{fill:#603f2c;}.cls-9{fill:#5b4335;}.cls-10{fill:#815d46;}.cls-11{fill:#b1835d;}.cls-12{fill:#4b3727;}.cls-13{fill:#6b4f3e;}.cls-14{fill:#4f3829;}.cls-15{fill:#68412c;}.cls-16{fill:#6d583d;}.cls-17{fill:#b0754e;}.cls-18{fill:#442d1f;}.cls-19{fill:#634636;}.cls-20{fill:#3b4244;}</style></defs><title>dirt-10</title><g id="Layer_2" data-name="Layer 2"><g id="Layer_1-2" data-name="Layer 1"><g id="dirt-10"><rect class="cls-1" x="16" y="44" width="4" height="4"/><rect class="cls-2" x="20" y="44" width="4" height="4"/><rect class="cls-3" y="28" width="4" height="4"/><rect class="cls-4" y="32" width="4" height="4"/><rect class="cls-5" y="36" width="4" height="4"/><rect class="cls-6" x="4" y="36" width="4" height="4"/><rect class="cls-4" x="12" y="36" width="4" height="4"/><rect class="cls-5" x="8" y="36" width="4" height="4"/><rect class="cls-7" x="12" y="40" width="4" height="4"/><rect class="cls-6" x="16" y="36" width="4" height="4"/><rect class="cls-2" x="16" y="40" width="4" height="4"/><rect class="cls-6" x="20" y="36" width="4" height="4"/><rect class="cls-8" x="20" y="40" width="4" height="4"/><rect class="cls-5" x="4" y="28" width="4" height="4"/><rect class="cls-6" x="8" y="28" width="4" height="4"/><rect class="cls-5" x="12" y="28" width="4" height="4"/><rect class="cls-1" x="16" y="28" width="4" height="4"/><rect class="cls-5" x="24" y="28" width="4" height="4"/><rect class="cls-2" x="20" y="28" width="4" height="4"/><rect class="cls-4" x="4" y="32" width="4" height="4"/><rect class="cls-2" x="8" y="32" width="4" height="4"/><rect class="cls-6" x="12" y="32" width="4" height="4"/><rect class="cls-5" x="16" y="32" width="4" height="4"/><rect class="cls-3" x="20" y="32" width="4" height="4"/><rect class="cls-7" x="24" y="32" width="4" height="4"/><rect class="cls-3" x="24" y="36" width="4" height="4"/><rect class="cls-2" x="24" y="40" width="4" height="4"/><rect class="cls-9" y="44" width="4" height="4"/><rect class="cls-10" y="48" width="4" height="4"/><rect class="cls-11" y="52" width="4" height="4"/><rect class="cls-10" y="56" width="4" height="4"/><rect class="cls-10" x="4" y="48" width="4" height="4"/><rect class="cls-11" x="4" y="44" width="4" height="4"/><rect class="cls-12" x="8" y="48" width="4" height="4"/><rect class="cls-13" x="4" y="52" width="4" height="4"/><rect class="cls-13" x="8" y="56" width="4" height="4"/><rect class="cls-13" x="8" y="44" width="4" height="4"/><rect class="cls-13" x="12" y="48" width="4" height="4"/><rect class="cls-10" x="12" y="52" width="4" height="4"/><rect class="cls-11" x="12" y="44" width="4" height="4"/><rect class="cls-11" x="16" y="48" width="4" height="4"/><rect class="cls-11" x="24" y="44" width="4" height="4"/><rect class="cls-14" x="28" y="44" width="4" height="4"/><rect class="cls-11" x="28" y="48" width="4" height="4"/><rect class="cls-12" x="32" y="44" width="4" height="4"/><rect class="cls-10" x="32" y="48" width="4" height="4"/><rect class="cls-15" y="60" width="4" height="4"/><rect class="cls-14" x="4" y="56" width="4" height="4"/><rect class="cls-11" x="8" y="52" width="4" height="4"/><rect class="cls-11" x="12" y="56" width="4" height="4"/><rect class="cls-16" x="16" y="52" width="4" height="4"/><rect class="cls-17" x="16" y="56" width="4" height="4"/><rect class="cls-9" x="20" y="48" width="4" height="4"/><rect class="cls-13" x="20" y="52" width="4" height="4"/><rect class="cls-18" x="20" y="56" width="4" height="4"/><rect class="cls-16" x="24" y="48" width="4" height="4"/><rect class="cls-9" x="24" y="52" width="4" height="4"/><rect class="cls-11" x="24" y="56" width="4" height="4"/><rect class="cls-17" x="28" y="52" width="4" height="4"/><rect class="cls-14" x="28" y="56" width="4" height="4"/><rect class="cls-13" x="32" y="52" width="4" height="4"/><rect class="cls-19" x="32" y="56" width="4" height="4"/><rect class="cls-10" y="40" width="4" height="4"/><rect class="cls-13" x="8" y="40" width="4" height="4"/><rect class="cls-14" x="4" y="40" width="4" height="4"/><rect class="cls-14" x="28" y="28" width="4" height="4"/><rect class="cls-12" x="32" y="28" width="4" height="4"/><rect class="cls-11" x="28" y="32" width="4" height="4"/><rect class="cls-10" x="32" y="32" width="4" height="4"/><rect class="cls-19" x="28" y="36" width="4" height="4"/><rect class="cls-14" x="28" y="40" width="4" height="4"/><rect class="cls-13" x="32" y="36" width="4" height="4"/><rect class="cls-12" x="32" y="40" width="4" height="4"/><rect class="cls-10" x="8" y="60" width="4" height="4"/><rect class="cls-14" x="4" y="60" width="4" height="4"/><rect class="cls-12" x="12" y="60" width="4" height="4"/><rect class="cls-13" x="16" y="60" width="4" height="4"/><rect class="cls-19" x="20" y="60" width="4" height="4"/><rect class="cls-16" x="24" y="60" width="4" height="4"/><rect class="cls-18" x="28" y="60" width="4" height="4"/><rect class="cls-13" x="32" y="60" width="4" height="4"/></g><g id="crazyminer-2"><rect class="cls-20" x="276.23" width="4" height="4"/></g></g></g></svg>