<svg xmlns="http://www.w3.org/2000/svg" viewBox="0 0 36 36"><defs><style>.cls-1{fill:#6e9545;}.cls-2{fill:#6b4c38;}.cls-3{fill:#674c36;}.cls-4{fill:#775745;}.cls-5{fill:#9d7155;}.cls-6{fill:#cd986c;}.cls-7{fill:#6da045;}.cls-8{fill:#78ab4b;}.cls-9{fill:#603f2c;}.cls-10{fill:#87644e;}.cls-11{fill:#79af45;}.cls-12{fill:#6c9e3c;}.cls-13{fill:#896f4d;}.cls-14{fill:#7f5a45;}.cls-15{fill:#815d46;}.cls-16{fill:#68412c;}</style></defs><title>dirt-2</title><g id="Layer_2" data-name="Layer 2"><g id="Layer_1-2" data-name="Layer 1"><g id="dirt-2"><rect class="cls-1" y="4" width="4" height="4"/><rect class="cls-2" y="8" width="4" height="4"/><rect class="cls-3" y="12" width="4" height="4"/><rect class="cls-4" y="16" width="4" height="4"/><rect class="cls-5" y="20" width="4" height="4"/><rect class="cls-6" y="24" width="4" height="4"/><rect class="cls-7" x="4" y="4" width="4" height="4"/><rect class="cls-8" x="4" y="8" width="4" height="4"/><rect class="cls-5" x="4" y="20" width="4" height="4"/><rect class="cls-1" x="8" y="4" width="4" height="4"/><rect class="cls-9" x="8" y="8" width="4" height="4"/><rect class="cls-6" x="4" y="16" width="4" height="4"/><rect class="cls-3" x="8" y="20" width="4" height="4"/><rect class="cls-10" x="4" y="24" width="4" height="4"/><rect class="cls-10" x="8" y="28" width="4" height="4"/><rect class="cls-8" x="12" width="4" height="4"/><rect class="cls-3" x="12" y="4" width="4" height="4"/><rect class="cls-2" x="12" y="8" width="4" height="4"/><rect class="cls-3" x="4" y="12" width="4" height="4"/><rect class="cls-10" x="8" y="16" width="4" height="4"/><rect class="cls-10" x="12" y="20" width="4" height="4"/><rect class="cls-5" x="12" y="24" width="4" height="4"/><rect class="cls-11" x="16" width="4" height="4"/><rect class="cls-12" x="16" y="4" width="4" height="4"/><rect class="cls-3" x="16" y="8" width="4" height="4"/><rect class="cls-10" x="8" y="12" width="4" height="4"/><rect class="cls-6" x="12" y="16" width="4" height="4"/><rect class="cls-6" x="16" y="20" width="4" height="4"/><rect class="cls-2" x="24" y="4" width="4" height="4"/><rect class="cls-2" x="24" y="8" width="4" height="4"/><rect class="cls-10" x="16" y="12" width="4" height="4"/><rect class="cls-2" x="16" y="16" width="4" height="4"/><rect class="cls-1" x="28" width="4" height="4"/><rect class="cls-8" x="32" y="4" width="4" height="4"/><rect class="cls-3" x="32" y="8" width="4" height="4"/><rect class="cls-5" x="24" y="12" width="4" height="4"/><rect class="cls-6" x="24" y="16" width="4" height="4"/><rect class="cls-8" width="4" height="4"/><rect class="cls-1" x="4" width="4" height="4"/><rect class="cls-1" x="8" width="4" height="4"/><rect class="cls-8" x="20" width="4" height="4"/><rect class="cls-8" x="20" y="4" width="4" height="4"/><rect class="cls-8" x="20" y="8" width="4" height="4"/><rect class="cls-13" x="12" y="12" width="4" height="4"/><rect class="cls-1" x="24" width="4" height="4"/><rect class="cls-1" x="28" y="4" width="4" height="4"/><rect class="cls-8" x="28" y="8" width="4" height="4"/><rect class="cls-1" x="20" y="12" width="4" height="4"/><rect class="cls-3" x="20" y="16" width="4" height="4"/><rect class="cls-8" x="32" width="4" height="4"/><rect class="cls-1" x="28" y="12" width="4" height="4"/><rect class="cls-2" x="28" y="16" width="4" height="4"/><rect class="cls-6" x="28" y="20" width="4" height="4"/><rect class="cls-2" x="32" y="12" width="4" height="4"/><rect class="cls-10" x="32" y="16" width="4" height="4"/><rect class="cls-5" x="32" y="20" width="4" height="4"/><rect class="cls-2" x="4" y="28" width="4" height="4"/><rect class="cls-6" x="8" y="24" width="4" height="4"/><rect class="cls-13" x="12" y="28" width="4" height="4"/><rect class="cls-10" x="16" y="24" width="4" height="4"/><rect class="cls-13" x="16" y="28" width="4" height="4"/><rect class="cls-4" x="20" y="20" width="4" height="4"/><rect class="cls-10" x="20" y="24" width="4" height="4"/><rect class="cls-9" x="20" y="28" width="4" height="4"/><rect class="cls-13" x="24" y="20" width="4" height="4"/><rect class="cls-6" x="24" y="24" width="4" height="4"/><rect class="cls-10" x="24" y="28" width="4" height="4"/><rect class="cls-14" x="28" y="24" width="4" height="4"/><rect class="cls-13" x="28" y="28" width="4" height="4"/><rect class="cls-10" x="32" y="24" width="4" height="4"/><rect class="cls-5" x="32" y="28" width="4" height="4"/><rect class="cls-5" x="8" y="32" width="4" height="4"/><rect class="cls-2" x="4" y="32" width="4" height="4"/><rect class="cls-3" x="12" y="32" width="4" height="4"/><rect class="cls-10" x="16" y="32" width="4" height="4"/><rect class="cls-2" x="20" y="32" width="4" height="4"/><rect class="cls-13" x="24" y="32" width="4" height="4"/><rect class="cls-9" x="28" y="32" width="4" height="4"/><rect class="cls-3" x="32" y="32" width="4" height="4"/><rect class="cls-15" y="28" width="4" height="4"/><rect class="cls-16" y="32" width="4" height="4"/></g></g></g></svg>