<svg xmlns="http://www.w3.org/2000/svg" viewBox="0 0 328.23 56"><defs><style>.cls-1{fill:#775745;}.cls-2{fill:#9d7155;}.cls-3{fill:#cd986c;}.cls-4{fill:#87644e;}.cls-5{fill:#6b4c38;}.cls-6{fill:#674c36;}.cls-7{fill:#896f4d;}.cls-8{fill:#7f5a45;}.cls-9{fill:#5b4335;}.cls-10{fill:#815d46;}.cls-11{fill:#b1835d;}.cls-12{fill:#4b3727;}.cls-13{fill:#6b4f3e;}.cls-14{fill:#4f3829;}.cls-15{fill:#68412c;}.cls-16{fill:#6d583d;}.cls-17{fill:#6c7d81;}.cls-18{fill:#442d1f;}.cls-19{fill:#b0754e;}.cls-20{fill:#634636;}.cls-21{fill:#3b4244;}</style></defs><title>dirt-9</title><g id="Layer_2" data-name="Layer 2"><g id="Layer_1-2" data-name="Layer 1"><g id="dirt-9"><rect class="cls-1" y="20" width="4" height="4"/><rect class="cls-2" y="24" width="4" height="4"/><rect class="cls-3" y="28" width="4" height="4"/><rect class="cls-4" x="20" y="28" width="4" height="4"/><rect class="cls-3" x="4" y="20" width="4" height="4"/><rect class="cls-4" x="8" y="20" width="4" height="4"/><rect class="cls-3" x="12" y="20" width="4" height="4"/><rect class="cls-5" x="16" y="20" width="4" height="4"/><rect class="cls-3" x="24" y="20" width="4" height="4"/><rect class="cls-6" x="20" y="20" width="4" height="4"/><rect class="cls-5" x="28" y="20" width="4" height="4"/><rect class="cls-6" x="32" y="20" width="4" height="4"/><rect class="cls-2" x="4" y="24" width="4" height="4"/><rect class="cls-6" x="8" y="24" width="4" height="4"/><rect class="cls-4" x="12" y="24" width="4" height="4"/><rect class="cls-3" x="16" y="24" width="4" height="4"/><rect class="cls-3" x="28" y="24" width="4" height="4"/><rect class="cls-2" x="32" y="24" width="4" height="4"/><rect class="cls-1" x="20" y="24" width="4" height="4"/><rect class="cls-7" x="24" y="24" width="4" height="4"/><rect class="cls-1" x="24" y="28" width="4" height="4"/><rect class="cls-8" x="28" y="28" width="4" height="4"/><rect class="cls-4" x="32" y="28" width="4" height="4"/><rect class="cls-9" y="36" width="4" height="4"/><rect class="cls-10" y="40" width="4" height="4"/><rect class="cls-11" y="44" width="4" height="4"/><rect class="cls-10" y="48" width="4" height="4"/><rect class="cls-10" x="4" y="40" width="4" height="4"/><rect class="cls-11" x="4" y="36" width="4" height="4"/><rect class="cls-12" x="8" y="40" width="4" height="4"/><rect class="cls-13" x="4" y="44" width="4" height="4"/><rect class="cls-13" x="8" y="48" width="4" height="4"/><rect class="cls-13" x="8" y="36" width="4" height="4"/><rect class="cls-13" x="12" y="40" width="4" height="4"/><rect class="cls-10" x="12" y="44" width="4" height="4"/><rect class="cls-11" x="12" y="36" width="4" height="4"/><rect class="cls-11" x="16" y="40" width="4" height="4"/><rect class="cls-14" x="16" y="36" width="4" height="4"/><rect class="cls-11" x="24" y="36" width="4" height="4"/><rect class="cls-12" x="20" y="36" width="4" height="4"/><rect class="cls-14" x="28" y="36" width="4" height="4"/><rect class="cls-11" x="28" y="40" width="4" height="4"/><rect class="cls-12" x="32" y="36" width="4" height="4"/><rect class="cls-10" x="32" y="40" width="4" height="4"/><rect class="cls-15" y="52" width="4" height="4"/><rect class="cls-14" x="4" y="48" width="4" height="4"/><rect class="cls-11" x="8" y="44" width="4" height="4"/><rect class="cls-11" x="12" y="48" width="4" height="4"/><rect class="cls-16" x="16" y="44" width="4" height="4"/><rect class="cls-17" x="16" y="48" width="4" height="4"/><rect class="cls-9" x="20" y="40" width="4" height="4"/><rect class="cls-13" x="20" y="44" width="4" height="4"/><rect class="cls-18" x="20" y="48" width="4" height="4"/><rect class="cls-16" x="24" y="40" width="4" height="4"/><rect class="cls-9" x="24" y="44" width="4" height="4"/><rect class="cls-11" x="24" y="48" width="4" height="4"/><rect class="cls-19" x="28" y="44" width="4" height="4"/><rect class="cls-14" x="28" y="48" width="4" height="4"/><rect class="cls-13" x="32" y="44" width="4" height="4"/><rect class="cls-20" x="32" y="48" width="4" height="4"/><rect class="cls-10" y="32" width="4" height="4"/><rect class="cls-13" x="4" y="28" width="4" height="4"/><rect class="cls-13" x="8" y="32" width="4" height="4"/><rect class="cls-10" x="12" y="28" width="4" height="4"/><rect class="cls-14" x="4" y="32" width="4" height="4"/><rect class="cls-11" x="8" y="28" width="4" height="4"/><rect class="cls-16" x="12" y="32" width="4" height="4"/><rect class="cls-13" x="16" y="28" width="4" height="4"/><rect class="cls-12" x="16" y="32" width="4" height="4"/><rect class="cls-18" x="20" y="32" width="4" height="4"/><rect class="cls-12" x="24" y="32" width="4" height="4"/><rect class="cls-14" x="28" y="32" width="4" height="4"/><rect class="cls-12" x="32" y="32" width="4" height="4"/><rect class="cls-10" x="8" y="52" width="4" height="4"/><rect class="cls-14" x="4" y="52" width="4" height="4"/><rect class="cls-12" x="12" y="52" width="4" height="4"/><rect class="cls-13" x="16" y="52" width="4" height="4"/><rect class="cls-20" x="20" y="52" width="4" height="4"/><rect class="cls-16" x="24" y="52" width="4" height="4"/><rect class="cls-18" x="28" y="52" width="4" height="4"/><rect class="cls-13" x="32" y="52" width="4" height="4"/></g><g id="crazyminer-2"><rect class="cls-21" x="324.23" width="4" height="4"/></g></g></g></svg>