<svg xmlns="http://www.w3.org/2000/svg" viewBox="0 0 36 36"><defs><style>.cls-1{fill:#3c8d25;}.cls-2{fill:#409229;}.cls-3{fill:#46a62b;}.cls-4{fill:#0e2507;}.cls-5{fill:#3f8c29;}.cls-6{fill:#3b8924;}.cls-7{fill:#193f0e;}.cls-8{fill:#41932a;}.cls-9{fill:#3f9427;}.cls-10{fill:#112d09;}.cls-11{fill:#48aa2c;}.cls-12{fill:#3d8e26;}.cls-13{fill:#4aaa2f;}.cls-14{fill:#3e8f27;}.cls-15{fill:#2e6a1d;}.cls-16{fill:#0a1a05;}.cls-17{fill:#4baf2e;}.cls-18{fill:#3b8925;}.cls-19{fill:#419828;}.cls-20{fill:#204e13;}.cls-21{fill:#3e8c28;}.cls-22{fill:#409129;}.cls-23{fill:#3a8624;}.cls-24{fill:#235515;}.cls-25{fill:#43982b;}.cls-26{fill:#3f9326;}.cls-27{fill:#11290a;}.cls-28{fill:#122b0b;}.cls-29{fill:#132c0c;}.cls-30{fill:#367f21;}.cls-31{fill:#193b0f;}.cls-32{fill:#060d03;}.cls-33{fill:#306d1f;}.cls-34{fill:#2c611c;}.cls-35{fill:#010301;}.cls-36{fill:#2b611c;}.cls-37{fill:#040a02;}.cls-38{fill:#060e03;}.cls-39{fill:#010401;}.cls-40{fill:#0e2308;}.cls-41{fill:#357d21;}.cls-42{fill:#183b0e;}.cls-43{fill:#275b18;}.cls-44{fill:#11280b;}.cls-45{fill:#3e9027;}.cls-46{fill:#357c21;}.cls-47{fill:#2c681b;}.cls-48{fill:#010200;}.cls-49{fill:#295f1a;}.cls-50{fill:#11270b;}.cls-51{fill:#11280a;}.cls-52{fill:#367e22;}.cls-53{fill:#2b641b;}.cls-54{fill:#285e19;}</style></defs><title>leaves-1</title><g id="Layer_2" data-name="Layer 2"><g id="Layer_1-2" data-name="Layer 1"><g id="leaves-1"><rect class="cls-1" y="12" width="4" height="4"/><rect class="cls-2" x="28" y="12" width="4" height="4"/><rect class="cls-1" y="8" width="4" height="4"/><rect class="cls-2" x="28" y="16" width="4" height="4"/><rect class="cls-3" x="28" y="8" width="4" height="4"/><rect class="cls-4" x="4" y="8" width="4" height="4"/><rect class="cls-5" x="8" y="8" width="4" height="4"/><rect class="cls-3" x="12" y="8" width="4" height="4"/><rect class="cls-6" x="16" y="8" width="4" height="4"/><rect class="cls-7" x="20" y="8" width="4" height="4"/><rect class="cls-8" x="24" y="8" width="4" height="4"/><rect class="cls-3" y="4" width="4" height="4"/><rect class="cls-9" x="28" y="4" width="4" height="4"/><rect class="cls-10" x="32" y="20" width="4" height="4"/><rect class="cls-11" x="32" y="16" width="4" height="4"/><rect class="cls-12" x="32" y="12" width="4" height="4"/><rect class="cls-9" x="32" y="8" width="4" height="4"/><rect class="cls-13" x="32" y="4" width="4" height="4"/><rect class="cls-5" x="4" y="4" width="4" height="4"/><rect class="cls-11" x="8" y="4" width="4" height="4"/><rect class="cls-14" x="12" y="4" width="4" height="4"/><rect class="cls-15" x="16" y="4" width="4" height="4"/><rect class="cls-16" x="20" y="4" width="4" height="4"/><rect class="cls-17" x="24" y="4" width="4" height="4"/><rect class="cls-18" width="4" height="4"/><rect class="cls-9" x="28" width="4" height="4"/><rect class="cls-9" x="32" width="4" height="4"/><rect class="cls-5" x="4" width="4" height="4"/><rect class="cls-11" x="8" width="4" height="4"/><rect class="cls-2" x="12" width="4" height="4"/><rect class="cls-15" x="16" width="4" height="4"/><rect class="cls-2" x="20" width="4" height="4"/><rect class="cls-2" x="24" width="4" height="4"/><rect class="cls-5" x="4" y="12" width="4" height="4"/><rect class="cls-19" x="8" y="12" width="4" height="4"/><rect class="cls-20" x="12" y="12" width="4" height="4"/><rect class="cls-21" x="16" y="12" width="4" height="4"/><rect class="cls-22" x="20" y="12" width="4" height="4"/><rect class="cls-23" x="24" y="12" width="4" height="4"/><rect class="cls-24" x="8" y="16" width="4" height="4"/><rect class="cls-25" x="12" y="16" width="4" height="4"/><rect class="cls-20" x="16" y="16" width="4" height="4"/><rect class="cls-22" x="20" y="16" width="4" height="4"/><rect class="cls-26" x="24" y="16" width="4" height="4"/><rect class="cls-27" y="32" width="4" height="4"/><rect class="cls-28" y="28" width="4" height="4"/><rect class="cls-29" y="24" width="4" height="4"/><rect class="cls-30" y="20" width="4" height="4"/><rect class="cls-31" y="16" width="4" height="4"/><rect class="cls-32" x="28" y="28" width="4" height="4"/><rect class="cls-23" x="28" y="32" width="4" height="4"/><rect class="cls-33" x="28" y="24" width="4" height="4"/><rect class="cls-34" x="28" y="20" width="4" height="4"/><rect class="cls-35" x="32" y="32" width="4" height="4"/><rect class="cls-36" x="32" y="28" width="4" height="4"/><rect class="cls-37" x="32" y="24" width="4" height="4"/><rect class="cls-38" x="4" y="16" width="4" height="4"/><rect class="cls-38" x="4" y="20" width="4" height="4"/><rect class="cls-39" x="8" y="20" width="4" height="4"/><rect class="cls-40" x="12" y="20" width="4" height="4"/><rect class="cls-41" x="16" y="20" width="4" height="4"/><rect class="cls-42" x="20" y="20" width="4" height="4"/><rect class="cls-43" x="24" y="20" width="4" height="4"/><rect class="cls-42" x="4" y="24" width="4" height="4"/><rect class="cls-44" x="8" y="24" width="4" height="4"/><rect class="cls-45" x="12" y="24" width="4" height="4"/><rect class="cls-46" x="16" y="24" width="4" height="4"/><rect class="cls-42" x="20" y="24" width="4" height="4"/><rect class="cls-47" x="24" y="24" width="4" height="4"/><rect class="cls-36" x="4" y="28" width="4" height="4"/><rect class="cls-48" x="8" y="28" width="4" height="4"/><rect class="cls-49" x="12" y="28" width="4" height="4"/><rect class="cls-50" x="16" y="28" width="4" height="4"/><rect class="cls-23" x="20" y="28" width="4" height="4"/><rect class="cls-51" x="24" y="28" width="4" height="4"/><rect class="cls-40" x="4" y="32" width="4" height="4"/><rect class="cls-52" x="8" y="32" width="4" height="4"/><rect class="cls-53" x="12" y="32" width="4" height="4"/><rect class="cls-54" x="16" y="32" width="4" height="4"/><rect class="cls-23" x="20" y="32" width="4" height="4"/><rect class="cls-23" x="24" y="32" width="4" height="4"/></g></g></g></svg>