<svg xmlns="http://www.w3.org/2000/svg" viewBox="0 0 36 36"><defs><style>.cls-1{fill:#235415;}.cls-2{fill:#245616;}.cls-3{fill:#255717;}.cls-4{fill:#48aa2c;}.cls-5{fill:#2b661a;}.cls-6{fill:#3c8d25;}.cls-7{fill:#409229;}.cls-8{fill:#17370e;}.cls-9{fill:#43982b;}.cls-10{fill:#3f8c29;}.cls-11{fill:#0c2106;}.cls-12{fill:#0e2507;}.cls-13{fill:#409129;}.cls-14{fill:#46a62b;}.cls-15{fill:#3b8924;}.cls-16{fill:#193f0e;}.cls-17{fill:#41932a;}.cls-18{fill:#142e0b;}.cls-19{fill:#0e2607;}.cls-20{fill:#3e8c28;}.cls-21{fill:#14320b;}.cls-22{fill:#112d09;}.cls-23{fill:#3d8e26;}.cls-24{fill:#3f9427;}.cls-25{fill:#4aaa2f;}.cls-26{fill:#3e8f27;}.cls-27{fill:#2e6a1d;}.cls-28{fill:#0a1a05;}.cls-29{fill:#4baf2e;}.cls-30{fill:#3b8925;}.cls-31{fill:#419828;}.cls-32{fill:#204e13;}.cls-33{fill:#3a8624;}.cls-34{fill:#16380c;}.cls-35{fill:#235515;}.cls-36{fill:#3f9326;}.cls-37{fill:#0e2707;}.cls-38{fill:#48a82d;}.cls-39{fill:#2a6619;}.cls-40{fill:#245316;}.cls-41{fill:#51bb33;}.cls-42{fill:#47a72c;}.cls-43{fill:#0d2506;}.cls-44{fill:#3c8a26;}.cls-45{fill:#245217;}.cls-46{fill:#4db130;}.cls-47{fill:#235315;}.cls-48{fill:#49a92e;}.cls-49{fill:#3e8f26;}</style></defs><title>leaves-4</title><g id="Layer_2" data-name="Layer 2"><g id="Layer_1-2" data-name="Layer 1"><g id="leaves-4"><rect class="cls-1" y="32" width="4" height="4"/><rect class="cls-2" y="28" width="4" height="4"/><rect class="cls-3" y="24" width="4" height="4"/><rect class="cls-4" y="20" width="4" height="4"/><rect class="cls-5" y="16" width="4" height="4"/><rect class="cls-6" y="12" width="4" height="4"/><rect class="cls-7" x="28" y="12" width="4" height="4"/><rect class="cls-8" x="28" y="28" width="4" height="4"/><rect class="cls-6" y="8" width="4" height="4"/><rect class="cls-7" x="28" y="16" width="4" height="4"/><rect class="cls-6" x="28" y="32" width="4" height="4"/><rect class="cls-9" x="28" y="24" width="4" height="4"/><rect class="cls-10" x="28" y="20" width="4" height="4"/><rect class="cls-11" x="28" y="8" width="4" height="4"/><rect class="cls-12" x="4" y="8" width="4" height="4"/><rect class="cls-13" x="8" y="8" width="4" height="4"/><rect class="cls-14" x="12" y="8" width="4" height="4"/><rect class="cls-15" x="16" y="8" width="4" height="4"/><rect class="cls-16" x="20" y="8" width="4" height="4"/><rect class="cls-17" x="24" y="8" width="4" height="4"/><rect class="cls-14" y="4" width="4" height="4"/><rect class="cls-18" x="28" y="4" width="4" height="4"/><rect class="cls-19" x="32" y="32" width="4" height="4"/><rect class="cls-20" x="32" y="28" width="4" height="4"/><rect class="cls-21" x="32" y="24" width="4" height="4"/><rect class="cls-22" x="32" y="20" width="4" height="4"/><rect class="cls-4" x="32" y="16" width="4" height="4"/><rect class="cls-23" x="32" y="12" width="4" height="4"/><rect class="cls-24" x="32" y="8" width="4" height="4"/><rect class="cls-25" x="32" y="4" width="4" height="4"/><rect class="cls-10" x="4" y="4" width="4" height="4"/><rect class="cls-4" x="8" y="4" width="4" height="4"/><rect class="cls-26" x="12" y="4" width="4" height="4"/><rect class="cls-27" x="16" y="4" width="4" height="4"/><rect class="cls-28" x="20" y="4" width="4" height="4"/><rect class="cls-29" x="24" y="4" width="4" height="4"/><rect class="cls-30" width="4" height="4"/><rect class="cls-18" x="28" width="4" height="4"/><rect class="cls-24" x="32" width="4" height="4"/><rect class="cls-10" x="4" width="4" height="4"/><rect class="cls-4" x="8" width="4" height="4"/><rect class="cls-7" x="12" width="4" height="4"/><rect class="cls-27" x="16" width="4" height="4"/><rect class="cls-7" x="20" width="4" height="4"/><rect class="cls-7" x="24" width="4" height="4"/><rect class="cls-13" x="4" y="12" width="4" height="4"/><rect class="cls-31" x="8" y="12" width="4" height="4"/><rect class="cls-32" x="12" y="12" width="4" height="4"/><rect class="cls-20" x="16" y="12" width="4" height="4"/><rect class="cls-13" x="20" y="12" width="4" height="4"/><rect class="cls-33" x="24" y="12" width="4" height="4"/><rect class="cls-34" x="4" y="16" width="4" height="4"/><rect class="cls-35" x="8" y="16" width="4" height="4"/><rect class="cls-9" x="12" y="16" width="4" height="4"/><rect class="cls-32" x="16" y="16" width="4" height="4"/><rect class="cls-13" x="20" y="16" width="4" height="4"/><rect class="cls-36" x="24" y="16" width="4" height="4"/><rect class="cls-34" x="4" y="20" width="4" height="4"/><rect class="cls-37" x="8" y="20" width="4" height="4"/><rect class="cls-32" x="12" y="20" width="4" height="4"/><rect class="cls-38" x="16" y="20" width="4" height="4"/><rect class="cls-39" x="20" y="20" width="4" height="4"/><rect class="cls-33" x="24" y="20" width="4" height="4"/><rect class="cls-39" x="4" y="24" width="4" height="4"/><rect class="cls-40" x="8" y="24" width="4" height="4"/><rect class="cls-41" x="12" y="24" width="4" height="4"/><rect class="cls-42" x="16" y="24" width="4" height="4"/><rect class="cls-39" x="20" y="24" width="4" height="4"/><rect class="cls-36" x="24" y="24" width="4" height="4"/><rect class="cls-20" x="4" y="28" width="4" height="4"/><rect class="cls-43" x="8" y="28" width="4" height="4"/><rect class="cls-44" x="12" y="28" width="4" height="4"/><rect class="cls-45" x="16" y="28" width="4" height="4"/><rect class="cls-46" x="20" y="28" width="4" height="4"/><rect class="cls-47" x="24" y="28" width="4" height="4"/><rect class="cls-32" x="4" y="32" width="4" height="4"/><rect class="cls-48" x="8" y="32" width="4" height="4"/><rect class="cls-49" x="12" y="32" width="4" height="4"/><rect class="cls-30" x="16" y="32" width="4" height="4"/><rect class="cls-46" x="20" y="32" width="4" height="4"/><rect class="cls-47" x="24" y="32" width="4" height="4"/></g></g></g></svg>