<svg xmlns="http://www.w3.org/2000/svg" viewBox="0 0 36 36"><defs><style>.cls-1{fill:#3a2d1a;}.cls-2{fill:#41351f;}.cls-3{fill:#3b2f17;}.cls-4{fill:#3e311e;}.cls-5{fill:#453825;}.cls-6{fill:#6b5432;}.cls-7{fill:#64502d;}.cls-8{fill:#6e5a39;}.cls-9{fill:#3d331a;}.cls-10{fill:#6a5635;}.cls-11{fill:#9a7a4b;}.cls-12{fill:#403320;}.cls-13{fill:#9a774d;}.cls-14{fill:#3f331d;}.cls-15{fill:#705c3b;}.cls-16{fill:#957346;}.cls-17{fill:#413421;}.cls-18{fill:#695532;}.cls-19{fill:#433323;}.cls-20{fill:#927144;}.cls-21{fill:#6d5938;}.cls-22{fill:#3f3221;}.cls-23{fill:#382b18;}.cls-24{fill:#6a5536;}.cls-25{fill:#695534;}.cls-26{fill:#987a46;}.cls-27{fill:#6d5634;}.cls-28{fill:#9b7b4a;}.cls-29{fill:#3f2f1f;}.cls-30{fill:#9b7949;}.cls-31{fill:#6b5736;}.cls-32{fill:#463926;}.cls-33{fill:#675332;}.cls-34{fill:#967645;}.cls-35{fill:#423522;}.cls-36{fill:#7c623f;}.cls-37{fill:#40341e;}.cls-38{fill:#3a2d1c;}.cls-39{fill:#6e5b3b;}.cls-40{fill:#9a7a49;}.cls-41{fill:#392c1b;}.cls-42{fill:#665231;}.cls-43{fill:#6a5737;}.cls-44{fill:#5f4b30;}.cls-45{fill:#6c5837;}.cls-46{fill:#685433;}.cls-47{fill:#7c623d;}.cls-48{fill:#4c3d28;}.cls-49{fill:#967844;}.cls-50{fill:#403322;}</style></defs><title>wood-1</title><g id="Layer_2" data-name="Layer 2"><g id="Layer_1-2" data-name="Layer 1"><g id="wood-1"><rect class="cls-1" y="32" width="4" height="4"/><rect class="cls-2" y="28" width="4" height="4"/><rect class="cls-3" y="24" width="4" height="4"/><rect class="cls-4" y="20" width="4" height="4"/><rect class="cls-5" y="16" width="4" height="4"/><rect class="cls-6" y="12" width="4" height="4"/><rect class="cls-7" x="28" y="12" width="4" height="4"/><rect class="cls-8" x="28" y="28" width="4" height="4"/><rect class="cls-6" y="8" width="4" height="4"/><rect class="cls-7" x="28" y="16" width="4" height="4"/><rect class="cls-9" x="28" y="32" width="4" height="4"/><rect class="cls-10" x="28" y="24" width="4" height="4"/><rect class="cls-11" x="28" y="20" width="4" height="4"/><rect class="cls-12" x="28" y="8" width="4" height="4"/><rect class="cls-13" x="4" y="8" width="4" height="4"/><rect class="cls-14" x="8" y="8" width="4" height="4"/><rect class="cls-15" x="12" y="8" width="4" height="4"/><rect class="cls-16" x="16" y="8" width="4" height="4"/><rect class="cls-17" x="20" y="8" width="4" height="4"/><rect class="cls-18" x="24" y="8" width="4" height="4"/><rect class="cls-15" y="4" width="4" height="4"/><rect class="cls-19" x="28" y="4" width="4" height="4"/><rect class="cls-20" x="32" y="32" width="4" height="4"/><rect class="cls-21" x="32" y="28" width="4" height="4"/><rect class="cls-22" x="32" y="24" width="4" height="4"/><rect class="cls-23" x="32" y="20" width="4" height="4"/><rect class="cls-4" x="32" y="16" width="4" height="4"/><rect class="cls-24" x="32" y="12" width="4" height="4"/><rect class="cls-25" x="32" y="8" width="4" height="4"/><rect class="cls-26" x="32" y="4" width="4" height="4"/><rect class="cls-11" x="4" y="4" width="4" height="4"/><rect class="cls-4" x="8" y="4" width="4" height="4"/><rect class="cls-27" x="12" y="4" width="4" height="4"/><rect class="cls-28" x="16" y="4" width="4" height="4"/><rect class="cls-29" x="20" y="4" width="4" height="4"/><rect class="cls-30" x="24" y="4" width="4" height="4"/><rect class="cls-31" width="4" height="4"/><rect class="cls-19" x="28" width="4" height="4"/><rect class="cls-25" x="32" width="4" height="4"/><rect class="cls-11" x="4" width="4" height="4"/><rect class="cls-4" x="8" width="4" height="4"/><rect class="cls-7" x="12" width="4" height="4"/><rect class="cls-28" x="16" width="4" height="4"/><rect class="cls-7" x="20" width="4" height="4"/><rect class="cls-7" x="24" width="4" height="4"/><rect class="cls-13" x="4" y="12" width="4" height="4"/><rect class="cls-32" x="8" y="12" width="4" height="4"/><rect class="cls-33" x="12" y="12" width="4" height="4"/><rect class="cls-21" x="16" y="12" width="4" height="4"/><rect class="cls-34" x="20" y="12" width="4" height="4"/><rect class="cls-35" x="24" y="12" width="4" height="4"/><rect class="cls-36" x="4" y="16" width="4" height="4"/><rect class="cls-37" x="8" y="16" width="4" height="4"/><rect class="cls-10" x="12" y="16" width="4" height="4"/><rect class="cls-33" x="16" y="16" width="4" height="4"/><rect class="cls-34" x="20" y="16" width="4" height="4"/><rect class="cls-38" x="24" y="16" width="4" height="4"/><rect class="cls-36" x="4" y="20" width="4" height="4"/><rect class="cls-14" x="8" y="20" width="4" height="4"/><rect class="cls-33" x="12" y="20" width="4" height="4"/><rect class="cls-39" x="16" y="20" width="4" height="4"/><rect class="cls-40" x="20" y="20" width="4" height="4"/><rect class="cls-35" x="24" y="20" width="4" height="4"/><rect class="cls-40" x="4" y="24" width="4" height="4"/><rect class="cls-41" x="8" y="24" width="4" height="4"/><rect class="cls-42" x="12" y="24" width="4" height="4"/><rect class="cls-43" x="16" y="24" width="4" height="4"/><rect class="cls-40" x="20" y="24" width="4" height="4"/><rect class="cls-38" x="24" y="24" width="4" height="4"/><rect class="cls-21" x="4" y="28" width="4" height="4"/><rect class="cls-44" x="8" y="28" width="4" height="4"/><rect class="cls-45" x="12" y="28" width="4" height="4"/><rect class="cls-46" x="16" y="28" width="4" height="4"/><rect class="cls-47" x="20" y="28" width="4" height="4"/><rect class="cls-48" x="24" y="28" width="4" height="4"/><rect class="cls-33" x="4" y="32" width="4" height="4"/><rect class="cls-49" x="8" y="32" width="4" height="4"/><rect class="cls-50" x="12" y="32" width="4" height="4"/><rect class="cls-31" x="16" y="32" width="4" height="4"/><rect class="cls-47" x="20" y="32" width="4" height="4"/><rect class="cls-48" x="24" y="32" width="4" height="4"/></g></g></g></svg>